<svg width="1655" height="1217" viewBox="0 0 1655 1217" xmlns="http://www.w3.org/2000/svg" fill-rule="evenodd" clip-rule="evenodd" stroke-linejoin="round" stroke-miterlimit="1.41">
  <path d="M54 1195.5l5.15-866.73-41.63-273.3c3.3 1.3 38.2 4.6 47.6 5.73 19.1 2.28 43.7-12.85 61.75-5.9.7.27 1.42.53 2.12.78v44.96c-21.4 8.04-36.6 28.64-36.6 52.77 0 31.2 25.2 56.4 56.3 56.4 31.1 0 56.3-25.2 56.3-56.3 0-24.1-15.2-44.7-36.5-52.7V62.6c4 .2 8.1.36 12.2.6 2.6.14 11.2 10.5 16.2 11.62 13.2 2.88 28 1.34 41.3 2.3 24.9 1.8 67.6-24.2 91.4-20.92 5.8.8 16.4 8.12 22.2 9.5 4.3 1.03 10.3 2.27 17.1 3.35V88.6c-21.3 8.03-36.5 28.63-36.5 52.76 0 31.12 25.2 56.38 56.3 56.38 31.1 0 56.3-25.24 56.3-56.35 0-24.2-15.2-44.8-36.5-52.8V71.2c13.1-1.16 24.8-4.83 30.6-13.06 3.7-5.25 21.2 18.2 28.4 14.7 6.3-3.05 24.4-40.9 29.5-48.1 5.1-7.22 23.2-2.53 29.6-4.37 7.3-2.1 19.4 9.13 28.9 7.3 15.2-2.9 30.1-3.07 45.1-2.45v46.7c-21.4 8.04-36.5 28.65-36.5 52.77 0 31.1 25.2 56.3 56.3 56.3 31.1 0 56.4-25.3 56.4-56.4 0-24.2-15.2-44.8-36.6-52.8V27.3c3.3.1 6.6.17 10 .17 10.2 0 30.5-3.8 39.2 1.96 21.7 14.27 40.9 22.07 66.2 20.2 11.4-.87 19.8-14.9 30.7-19.04 1.8-.7 5-13.8 6.3-13.7 9.2.7 22.2 21.1 31.5 25.7v29.2c-21.3 8-36.5 28.6-36.5 52.7 0 31.1 25.2 56.3 56.3 56.3s56.4-25.3 56.4-56.4c0-24.1-15.2-44.7-36.5-52.8V53.2c21.3 3.45 37.9-15.83 57.6-17.7 13.2-1.25 26.7.87 40 0 2.6-.16 13.2-4.45 16.3-2.6 21.1 12.57 45.6 15.1 70 10.9v28c-21.3 8.06-36.5 28.67-36.5 52.8 0 31.1 25.2 56.4 56.4 56.4 31.1 0 56.4-25.25 56.4-56.36 0-24.12-15.2-44.73-36.5-52.77V25.53c36 19.15 79.7 16.76 117.1 10.13 13-2.3 38-11.72 50.9-4.6 6 3.3 10.5 10.56 15.8 16v24.8c-21.4 8.05-36.5 28.66-36.5 52.78 0 31.1 25.3 56.37 56.4 56.37 31.1 0 56.4-25.2 56.4-56.3 0-24.1-15.2-44.7-36.5-52.7V48.6c7.3-3.02 14.5-6.1 21.3-6.43 27.8-1.34 54.2 5.32 81.7 5.43 8.3.04 10.9-6.86 15.9-13.86.3-.45 10.5 2.88 11.8 2.88 7.6 0 13.4-4.78 20.9-5.6 6.1-.7 10.6 6.9 16.6 8.2 5.1 1.13 10.4 2.06 15.7 2.9v29.76c-21.3 8.03-36.5 28.64-36.5 52.76 0 31.1 25.3 56.37 56.4 56.37 31.1 0 56.4-25.2 56.4-56.3 0-24.1-15.2-44.7-36.5-52.7V46.9c13.1.4 26.3-.17 39.2 2.27 3.1.6 4.5-7.6 6.7-6.72 6.2 2.45 12.5 11.65 18.7 12.4 11.5 1.4 22.5-2.7 33.7-2.7l1.2 987.8s-262.9 156.83-495.8 157.54c-466 1.4-1077.8 2.7-1085.6-1.9z" fill="#98ceda"/>
  <path d="M1368.02 43.65c15.64 1.63 31.18 3.9 47.13 3.95 8.35.04 10.94-6.86 15.92-13.86.3-.45 10.54 2.88 11.85 2.88 7.55 0 13.37-4.78 20.82-5.6 6.12-.7 10.65 6.9 16.67 8.2 5.2 1.13 10.5 2.06 15.8 2.9v29.76c-21.3 8.03-36.5 28.64-36.5 52.76 0 31.1 25.3 56.37 56.4 56.37 31.1 0 56.4-25.2 56.4-56.3 0-24.1-15.2-44.7-36.5-52.7V46.9c13.2.4 26.4-.17 39.2 2.27 3.1.6 4.6-7.6 6.8-6.72 6.3 2.45 12.6 11.65 18.7 12.4 11.6 1.4 22.6-2.7 33.8-2.7l.3 228.4-1580 826.95 2-377.5 1180.6-617.95c-.9 4.05-1.4 8.26-1.4 12.6 0 31.1 25.3 56.36 56.4 56.36 31.1 0 56.3-25.2 56.3-56.3 0-23.7-14.6-44-35.4-52.3l54.8-28.7z" fill="#b7e3ec"/>
  <path d="M1635.22 859.83l.23 180s-262.88 156.83-495.82 157.54c-48.73.15-99.05.3-150.1.43l645.7-337.97z" fill="#83c5d3"/>
  <path d="M59.13 332.24l.02-3.47-41.63-273.3c3.3 1.3 38.2 4.6 47.6 5.73 19.1 2.28 43.7-12.85 61.75-5.9.7.27 1.42.53 2.12.78v44.96c-21.4 8.04-36.6 28.64-36.6 52.77 0 31.2 25.2 56.4 56.3 56.4 31.1 0 56.3-25.2 56.3-56.3 0-24.1-15.2-44.7-36.5-52.7V62.6c4 .2 8.1.36 12.2.6 2.6.14 11.2 10.5 16.2 11.62 13.2 2.88 28 1.34 41.3 2.3 24.9 1.8 67.6-24.2 91.4-20.92 5.8.8 16.4 8.12 22.2 9.5 4.3 1.03 10.3 2.27 17.1 3.35V88.6c-21.3 8.03-36.5 28.63-36.5 52.76 0 15.4 6.1 29.34 16.1 39.5L59.1 332.24zM444.6 130.88c-3.65-19.5-17.37-35.5-35.55-42.34v-17.4c13.15-1.15 24.77-4.82 30.6-13.05 3.73-5.3 21.2 18.2 28.44 14.7 6.3-3.1 24.4-40.9 29.5-48.1 5.1-7.3 23.2-2.6 29.6-4.4 7.3-2.1 19.4 9.1 28.9 7.3 15.2-2.9 30.1-3.1 45.1-2.5v23.8l-156.7 82zM642.8 27.35l-1.73.9v-.95l1.73.05z" fill="#64afbe"/>
  <path d="M142.8 1197.8l1491.86-780.9.2 150.4-1206.28 631.4c-118.04-.04-218.63-.3-285.76-.93z" fill="#b7e3ec"/>
  <path d="M1635.44 1031.78v8.04s-13.93 8.32-38.23 21.13H54.8l.18-29.17h1580.46zm-.12-91.18H55.52l.17-29.17h1579.5v29.17zm-.15-120.35H56.23l.17-29.16h1578.73l.04 29.1zM1635 699.9H56.95l.18-29.16H1635l.02 29.16zm-.14-120.34H57.66l.17-29.17h1577l.03 29.1zm-.15-120.35H58.4l.18-29.1H1634.7l.04 29.2zM56.3 309.7h1578.28l.03 29.16H59.1l.05-10.1-2.9-19.06z" fill="#6fbdcc"/>
  <path d="M1635.45 1039.82s-262.88 156.84-495.82 157.55c158.44-24.6 309.25-196.98 309.25-196.98s39.02 80.3 186.57 39.4" fill="#3091a2"/>
  <path d="M1449.9 985.85c1.46.18 1.85.17 3.27.6 2.67.82 5.07 2.42 6.87 4.55.36.43.7.88 1 1.34.42.64.7 1.23 1.06 1.86l.53.9c.3.5.6.97.9 1.44 2.03 3 4.32 5.82 6.8 8.46 2.8 3 5.87 5.78 9.1 8.33 13.4 10.57 29.62 17.07 46.26 20.44 4.7.95 9.4 1.66 14.2 2.16 5.7.6 11.5.9 17.3.93 6.5.03 13-.25 19.6-.8 8.3-.73 16.6-1.9 24.9-3.4 10-1.82 20-4.2 29.8-6.9l.6-.13.6-.14.2-.1.2-.1.6-.1.6-.1h.2l.2-.1h1.6l.6.1h.6l.2.1h.2l.6.1.6.1.2.1h.2l.5.2.6.2.2.1.2.1.5.3.5.3.2.1.2.1.5.4.5.3.2.1.2.1.4.4.4.4.1.1.2.1.4.5.4.4.1.2.2.2.3.5.4.5.1.2.2.2.3.5.3.5.1.2.1.2.2.6.2.5.1.2.1.2.1.6.2.5v.3l.1.2.1.6.1.6.1.2v.3l.1.6v2.7l-.1.6-.1.6-.1.2v.2l-.2.6-.1.6-.1.2-.1.2-.3.6-.2.6-.1.2-.1.2-.3.5-.3.5-.2.2-.1.2-.4.5-.4.5-.1.1-.2.2-.4.4-.4.5-.2.2-.2.2-.5.4-.5.3-.2.1-.2.2-.5.3-.5.3-3.2 1.8c-13.9 8-28 15.6-42.3 23-18.1 9.4-36.5 18.5-55 27.1-22.7 10.6-45.6 20.7-68.8 30.2-23.9 9.8-48.1 18.9-72.6 27.3-22.6 7.7-45.4 14.8-68.5 21.1-21 5.7-42.1 10.8-63.4 15-33 6.6-66.4 11.2-100 13.1-9.4.5-18.8.8-28.1.9h-1.4c-.6-.1-1.1-.1-1.7-.1-2.3-.3-4.4-1-6.3-2.2-1.4-.9-2.7-2.1-3.7-3.4-1.4-1.8-2.3-3.9-2.7-6.1-.4-2.2-.3-4.5.2-6.6.4-1.7 1.1-3.2 2.1-4.6 1.9-2.8 4.8-4.8 8-5.7 1-.3 1.6-.3 2.5-.5l3.5-.6 4.4-.8c5.3-1 10.5-2.2 15.8-3.5 14.2-3.6 28.2-8.3 41.8-13.8 15.1-6.1 29.7-13.1 44.1-20.8 19.7-10.6 38.7-22.6 57-35.4 21.6-15.1 42.3-31.4 62.2-48.6 14.5-12.5 28.6-25.5 42.2-39 5.5-5.5 10.9-11 16.3-16.6 3.8-4 7.6-8.1 11.3-12.2l.5-.6.4-.5 1.2-1.2c1.2-.9 1.4-1.2 2.7-1.9 1.5-.8 3.1-1.4 4.8-1.6.5-.1 1.1-.1 1.6-.2h1.6zm-3.1 38.27c-12.2 12.72-24.8 25.04-37.72 37-13.25 12.24-26.87 24.1-40.85 35.5-15.1 12.34-30.62 24.16-46.6 35.32-13.85 9.66-28.04 18.83-42.6 27.37-6.3 3.7-12.65 7.3-19.08 10.7l-.27.2c21.94-4.2 43.7-9.4 65.26-15.3 24.13-6.6 48.03-14.1 71.66-22.3 22.25-7.7 44.27-16 66.06-24.9 21.47-8.7 42.72-18 63.75-27.8 9.4-4.3 18.8-8.8 28.1-13.4l.7-.3h-3.3l-3.8-.1c-4.5-.2-8.9-.6-13.4-1.1-10.1-1.2-20.1-3.2-29.9-6.2-16.6-5.1-32.5-13.1-45.9-24.4-2.5-2.1-5-4.3-7.3-6.7-1.3-1.3-2.5-2.6-3.8-4l-.7.8z" fill="#0f3d44" fill-rule="nonzero"/>
  <path d="M977.97 17.96c.64.05.83.06 1.47.15 1.2.2 2.4.5 3.54.9.9.3 1.77.7 2.63 1.2.9.5 1.8 1.1 2.7 1.5 3.7 2.1 7.6 3.8 11.6 5.2 7.5 2.6 15.4 4 23.4 4.3 5.4.3 10.7.1 16-.5 2.4-.2 4.8-.6 7.2-1l6.3.3 5.6 3 3.8 5 1.4 6.2v28l-1.1 5.7-3.3 4.8-4.9 3.2-1.5.6c-3.7 1.6-7.2 3.7-10.3 6.3-4.5 3.7-8.2 8.4-10.9 13.7-1.9 3.8-3.2 7.8-3.8 12-.6 4.1-.7 8.3-.1 12.5.6 4.3 1.9 8.4 3.7 12.3 2.2 4.5 5.2 8.7 8.9 12.1 3.8 3.6 8.2 6.5 13 8.5 5.2 2.1 10.8 3.1 16.3 3.1 5.6-.1 11.1-1.2 16.2-3.5 4.9-2.2 9.4-5.3 13.1-9.2 3.5-3.6 6.4-7.8 8.4-12.4 1.7-3.8 2.8-7.8 3.2-11.9.5-4.3.4-8.7-.5-13-.9-4.6-2.6-9.1-5.1-13.2-2.7-4.5-6.2-8.4-10.3-11.6-3.2-2.5-6.7-4.5-10.5-6l-.4-.1-4.9-3.1-3.3-4.8-1.2-5.7v-47l1.2-5.8 3.5-4.8 5.1-3.1 5.9-.8c1.9.5 3.8 1 5.7 1.6.3.1.6.2.8.4l1.5.7 2.3 1c3.3 1.5 6.6 2.8 10 4 9.9 3.4 20.2 5.4 30.5 6.3 12.9 1.2 25.8.8 38.6-.5 5.8-.6 11.6-1.4 17.4-2.3l5.1-.9c.9-.2 1.8-.3 2.7-.5 1.3-.3 2.4-.5 3.6-.8 3.8-.9 7.6-1.9 11.3-2.8 2.5-.6 5.1-1.2 7.6-1.7 2-.4 4-.8 6.1-1.1 1.4-.2 2.8-.4 4.2-.5 7.5-.8 15.2-.7 22.3 1.9 1 .3 2 .7 3 1.2 1.6.7 3.2 1.7 4.7 2.7 3 2 5.6 4.6 8.1 7.2 2.1 2.2 4 4.6 6 6.9l1.2 1.4 1.1 1.3 3 4.6 1.1 5.5v24.8l-1.1 5.7-3.3 4.8-4.9 3.2-1.5.6c-3.5 1.5-6.8 3.4-9.8 5.7-4.5 3.6-8.2 8-10.9 13.1-2.2 4.1-3.7 8.5-4.4 13.1-.7 4.1-.7 8.3-.1 12.4.6 4.2 1.8 8.3 3.7 12.2 2.2 4.5 5.2 8.7 8.8 12.1 3.7 3.6 8.2 6.5 13 8.4 5.2 2.1 10.7 3.1 16.3 3.1 5.5-.1 11.1-1.3 16.2-3.5 4.9-2.1 9.4-5.3 13.2-9.1 3.5-3.6 6.4-7.8 8.4-12.5 1.7-3.9 2.8-8.1 3.2-12.4.4-4.2.2-8.4-.6-12.5-.8-3.9-2.1-7.6-3.9-11.2-2.8-5.4-6.8-10.2-11.7-13.9-3.1-2.4-6.6-4.3-10.2-5.7l-.4-.2-4.9-3.1-3.3-4.8-1.2-5.7v-23l1.1-5.6 3.2-4.7c1.6-1.1 3.1-2.2 4.8-3.2.9-.5 1.9-.8 2.8-1.1l4.4-1.8c4.7-1.9 9.6-3.4 14.6-4.2 1.1-.2 2.2-.3 3.3-.4 1.3-.1 2.6-.2 3.8-.2 3.3-.1 6.6-.1 9.8-.1 13.7.3 27.2 2 40.7 3.5l6.2.6c4.1.4 8.1.7 12.2 1l7.2.3h2.4c.3-.4.6-.8.8-1.2l2.7-4 1-1.6.6-.7c1.1-1.4 2.4-3.1 4-3.8l3.1-1.5c.8-.4 1.8-.4 2.7-.7h.1c.4 0 1.6-.2 2.2-.2.9 0 1.8.1 2.7.2 1.2.2 2.4.5 3.6.8l6.1 1.7.4.1c.3 0 .6-.1.9-.2 1.1-.3 2.2-.7 3.2-1.1l3.3-1.3 1.6-.5c2.4-.8 4.9-1.5 7.4-1.9 1.5-.2 2.9-.4 4.4-.3 3.1 0 6.1.7 8.9 1.9 2.1.9 4.1 2.1 6 3.5l3.9 3 .5.4.1.1 3.9.8c3.5.7 6.9 1.3 10.4 1.8l4.8 1.7c1.3 1.1 2.8 2 3.9 3.3 3.1 3.5 2.7 5 3.5 9.4v29.8l-1.2 5.7-3.3 4.8-4.9 3.1-1.5.6c-3.7 1.6-7.2 3.7-10.3 6.2-4.8 3.9-8.8 9-11.4 14.7-1.7 3.6-2.8 7.4-3.4 11.4-.6 3.9-.6 8-.1 12 .6 4.2 1.9 8.4 3.7 12.2 2.2 4.6 5.3 8.7 8.9 12.2 3.8 3.6 8.2 6.5 13 8.5 5.2 2.1 10.8 3.2 16.3 3.1 5.6-.1 11.1-1.2 16.2-3.5 4.9-2.2 9.4-5.3 13.2-9.1 3.5-3.6 6.4-7.8 8.4-12.4 1.7-3.9 2.8-8.1 3.3-12.4.5-4.3.3-8.6-.6-12.8-.9-4.3-2.4-8.4-4.6-12.1-2.8-5-6.7-9.3-11.3-12.8-3-2.3-6.4-4.1-9.9-5.5l-.4-.2-4.9-3.1-3.3-4.8-1.1-5.7v-25l1.2-5.7 3.3-4.8 4.9-3.1 5.7-1 3.5.1c4.1.1 8.2.1 12.4.2 5.5.1 11.1.3 16.6.9l.58.1.2-.2.5-.5 1.2-1.2c.84-.8 1.8-1.4 2.73-2l1.9-.9c.5-.2 1-.4 1.6-.5l1.6-.3c.6-.2 1.2-.2 1.8-.2 1.3-.1 2.4.1 3.7.3h.1c.5.1 1.6.4 2.2.6 3.3 1.2 6.2 3.2 9 5.4 2 1.6 3.9 3.4 5.8 5l1.4 1.1.3.3.1.1c3 .2 6-.1 9-.5 3.1-.4 6.15-.9 9.2-1.4l2.3-.3c1.67-.2 3.3-.4 4.95-.5 1.7-.1 3.5-.2 5.2-.2l5.6 1.1 4.8 3.2 3.2 4.7 1.1 5.6 1.3 987.8c-.7 4.3-.4 5.8-3.3 9.3-1.1 1.3-2.5 2.2-3.8 3.2-.2.2-.5.3-.8.5l-.9.6-3.1 1.8c-5.2 2.9-10.3 5.8-15.5 8.7-13 7.1-26.1 14-39.36 20.7-14.7 7.4-29.6 14.6-44.5 21.6-35.3 16.4-71.2 31.4-107.6 44.9-35 12.9-70.5 24.4-106.6 34-27.5 7.2-55.3 13.3-83.3 17.9-25.2 4.1-50.7 7-76.2 8.2-8 .4-16 .6-23.9.6-15.2 0-30.4.1-45.5.1l-90.2.2c-137.4.4-274.7.7-412 .9-93.7.1-187.5.1-281.2 0l-96.9-.3c-29.4-.2-58.8-.3-88.2-.7-9.4-.1-18.9-.2-28.3-.4-8.3-.2-16.6-.3-24.9-.6-4.7-.1-9.4-.3-14.1-.6l-4.7-.3c-1.56-.2-3.1-.4-4.6-.8-.5-.1-1-.3-1.5-.5s-1.34-.6-1.7-.8l-.05-.1c-1.4-1.1-3-1.9-4.2-3.2-3.2-3.6-2.8-5.2-3.65-9.8l4.6-866L3.5 57l.3-5.95 2.3-5 4.6-3.8 5.7-1.6 5.9.76-.6-.1-.2-.1 1.37.3c2.3.4 4.6.7 6.9.9 3.5.5 7.1.9 10.7 1.3 8 .9 16 1.7 24 2.6l2.9.3c2 .1 4 0 6-.2 2-.3 3.9-.6 5.8-1 5-1.1 9.8-2.4 14.7-3.6l3.3-.8c3.4-.7 6.9-1.4 10.3-1.8 5.5-.7 11.1-.8 16.5.1 2.1.3 4.1.8 6.1 1.5 1.2.4 2.3.8 3.4 1.2l.5.2 5.1 3.1 3.4 4.8 1.2 5.8v45l-1.1 5.7-3.3 4.8-4.9 3.1-1.5.6c-3.75 1.6-7.2 3.7-10.36 6.3-4.8 4-8.8 9-11.4 14.7-1.7 3.6-2.8 7.5-3.4 11.4-.6 4-.6 8.1 0 12.1.6 4.3 1.8 8.4 3.7 12.3 2.2 4.6 5.2 8.7 8.8 12.2 3.7 3.6 8.2 6.5 13 8.5 5.2 2.1 10.7 3.1 16.3 3.1 5.6-.1 11.1-1.3 16.2-3.5 4.9-2.2 9.4-5.3 13.2-9.1 3.5-3.7 6.4-7.9 8.4-12.5 1.7-4 2.8-8.2 3.2-12.5.5-4.3.2-8.7-.6-12.9-.9-4.2-2.4-8.2-4.5-11.8-2.8-5.1-6.8-9.6-11.5-13.1-3-2.3-6.3-4.1-9.9-5.5l-.4-.2-4.9-3.1-3.3-4.8-1.1-5.7V62.5l1.2-5.75 3.3-4.82 5-3.1 5.8-.9c3.6.17 7.2.33 10.8.52l1.8.1c.9.08 1.9.2 2.9.45 2.1.55 4.1 1.54 5.9 2.76 1.2.84 2.4 1.8 3.5 2.8 1.5 1.3 3 2.66 4.5 4 .9.7 1.7 1.42 2.6 2.1l.1.05c2.1.4 4.3.7 6.4.9 3.4.3 6.7.4 10.1.5 3.9.1 7.9.1 11.8.1 2.3.1 4.6.1 6.9.2 1.2.1 2.4.2 3.5.2.4.1.8.1 1.2.1 3.1 0 6.1-.5 9.1-1.1 3.3-.7 6.6-1.6 9.8-2.5 8.7-2.6 17.3-5.8 25.9-8.7 1.6-.5 3.2-1.1 4.8-1.6 5.4-1.7 10.7-3.4 16.2-4.7 3.8-.9 7.6-1.6 11.4-2 3.3-.4 6.7-.5 10-.3 1.8.1 3.6.3 5.4.7 2.7.6 5.3 1.6 7.8 2.7 3.5 1.6 6.9 3.4 10.3 5.1l1.8.9c.6.3 1.2.6 1.8.8 1.1.3 2.2.5 3.2.7 4.3 1 8.6 1.7 12.9 2.4l4.8 1.7c1.3 1.1 2.9 2 4 3.3 3.1 3.6 2.7 5.1 3.5 9.5V89l-1.1 5.7-3.3 4.8-4.9 3.1-1.6.6c-3.6 1.52-7 3.53-10 6-4.3 3.5-8 7.9-10.6 12.82-2.2 4.06-3.7 8.5-4.4 13.1-.6 4.1-.7 8.3-.1 12.4.6 4.26 1.9 8.4 3.7 12.27 2.2 4.5 5.2 8.6 8.9 12.1 3.8 3.6 8.2 6.5 13 8.4 5.2 2.1 10.8 3.1 16.3 3.1 5.6-.1 11.1-1.3 16.2-3.5 5-2.2 9.4-5.3 13.2-9.1 3.5-3.7 6.4-7.9 8.4-12.5 1.7-4 2.8-8.2 3.3-12.5.4-4.2.2-8.4-.6-12.5-.8-3.9-2.1-7.7-3.9-11.2-2.8-5.4-6.9-10.2-11.7-13.9-3.2-2.4-6.6-4.3-10.2-5.8l-.5-.2-4.9-3.2-3.3-4.8c-2.3-11.4-1.2-11.5-1.2-23.1l1-5.3c.9-1.5 1.6-3.2 2.8-4.6 1.2-1.3 2.7-2.4 4.3-3.2 1.6-.8 3.5-1 5.2-1.5.2-.1.4-.1.6-.1l1.5-.2 2-.3c3.6-.5 7.2-1.2 10.5-2.7 1.7-.7 3.3-1.6 4.6-2.8.4-.4.7-.8 1-1.2l.5-.7c.8-.8.9-1.1 1.7-1.8 1-.9 2.1-1.6 3.2-2.2 1.5-.8 3.1-1.4 4.7-1.7 1-.2 2.1-.3 3.2-.3.9 0 1.8.1 2.7.2.7.1 1.4.3 2.2.5 4.2 1.2 7.9 3.8 11.3 6.5l2.2 1.9 3.2 2.7.8.6c2.5-3.9 4.7-7.9 6.9-11.9 3.2-5.7 6.2-11.4 9.4-17.1l2.2-4c.7-1.2 1.3-2.3 2-3.4.6-1.1 1.3-2.1 2-3 .7-.9 1.4-1.7 2.1-2.4 1-1 2.1-1.9 3.2-2.7 1.1-.7 2.2-1.3 3.3-1.9 5.8-2.6 12.3-3 18.6-2.9l8.1.3h2.1c.1-.1.1 0 .2-.1.2 0 .5-.1.7-.1l.6-.1c1.3-.3 2.5-.4 3.8-.4 3.1-.1 6.2.5 9.1 1.4 4 1.3 7.8 3.1 11.6 4.8l1.5.6c.9.3 1.8.7 2.8.9h.1l2.8-.5 3.1-.5c6.2-.9 12.3-1.5 18.5-1.7 6.9-.3 13.8-.3 20.8-.1l1.4.1h1.4l5.4 1.3c1.5 1 3.3 1.8 4.6 3.2 3.5 3.6 3.2 5.4 4.1 10.1v47l-1.2 5.7-3.3 4.8-5 3.1-1.5.6c-3.5 1.5-6.7 3.4-9.7 5.7-4.5 3.5-8.2 8-10.9 13.1-2.2 4.1-3.7 8.5-4.4 13.1-.7 4.1-.7 8.3-.1 12.4.6 4.2 1.9 8.4 3.7 12.2 2.2 4.5 5.3 8.6 8.9 12.1 3.8 3.6 8.2 6.5 13.1 8.4 5.2 2.1 10.8 3.1 16.4 3.1 5.6-.1 11.1-1.3 16.2-3.5 4.9-2.1 9.4-5.2 13.1-9.1 3.5-3.6 6.4-7.8 8.4-12.4 1.7-3.9 2.8-8.1 3.2-12.4.4-4.2.2-8.4-.6-12.5-.8-3.8-2.1-7.6-3.9-11.1-2.8-5.4-6.9-10.2-11.7-13.9-3.1-2.4-6.5-4.3-10.2-5.7l-.4-.1-4.9-3.1-3.3-4.8-1.1-5.7V27.3l1.1-5.68 3.3-4.8 4.9-3.12 5.7-.97 4.8.12c1.6.02 3.2.04 4.7.04 1.5-.1 3-.1 4.5-.2l7.8-.6c6.3-.5 12.6-.8 18.9-.1 3.9.4 7.8 1.2 11.5 2.7 1.3.5 2.5 1.1 3.7 1.8l1.8 1.2 2.8 1.8c7 4.3 14.2 8.3 21.9 11.2 3.6 1.3 7.2 2.3 11 3.1 3.6.7 7.4 1.1 11.1 1.3 2.1.1 4.1 0 6.2 0l2-.1c.3-.1.7-.1 1-.1.2 0 .3-.1.5-.1.9-.3 1.7-.8 2.5-1.3 1.2-.9 2.4-1.8 3.5-2.7 1.9-1.6 3.7-3.1 5.5-4.7 1.9-1.6 3.7-3.1 5.7-4.4 1.1-.8 2.3-1.5 3.4-2.2v-.1c.5-1.4 1-2.8 1.6-4.2l.5-1.4c.8-2 1.6-3.9 2.9-5.5.2-.4.5-.7.7-.9.4-.5 1.3-1.3 1.6-1.6l.1-.1c.4-.3 1.2-1 1.8-1.4l.6-.4c.4-.2.9-.5 1.3-.7.6-.3 1.1-.5 1.7-.7.7-.2 1.4-.4 2-.5 1.9-.2 1.9-.2 3.8-.1h.4c1.3.1 2.5.4 3.7.7 4 1.2 7.6 3.4 10.9 5.9 3.9 3 7.3 6.6 10.8 10.1 1.5 1.6 3.1 3.2 4.6 4.7l1.8 1.8c.8.7 1.6 1.5 2.4 2.2.6.5 1.2 1 1.9 1.4l.2.1h-.1l4 3.2c2.9 4.5 2.9 4.6 3.9 9.9v29.2l-1.1 5.7-3.3 4.8-4.9 3.1-1.6.6c-3.7 1.6-7.2 3.7-10.4 6.3-4.9 4-8.9 9.2-11.6 15-1.6 3.5-2.7 7.2-3.3 11.1-.6 4-.6 8-.1 12 .6 4.3 1.9 8.4 3.7 12.2 2.2 4.5 5.2 8.7 8.9 12.1 3.8 3.6 8.2 6.5 13.1 8.5 5.2 2.1 10.7 3.2 16.3 3.1 5.6-.1 11.1-1.2 16.2-3.5 4.9-2.1 9.4-5.3 13.2-9.1 3.5-3.6 6.4-7.8 8.4-12.5 1.7-4 2.8-8.2 3.3-12.4.4-4.3.2-8.7-.7-12.9-.9-4.2-2.4-8.2-4.45-11.8-2.9-5.1-6.8-9.6-11.5-13.1-3-2.3-6.4-4.1-9.9-5.5l-.4-.2-4.9-3.1-3.3-4.8-1.2-5.7V53l1.3-6.1 3.7-5 5.5-2.94 6.3-.4 1.2.14 1 .07c4.5.2 8.9-1.3 13-3.1 2.4-1 4.8-2.2 7.1-3.4 2.1-1 4.1-2.1 6.2-3.1l2.8-1.4c2.4-1.1 4.7-2.1 7.1-3.1 3.8-1.4 7.7-2.6 11.7-3.3 2-.3 4.1-.5 6.1-.7 1.7-.1 3.3-.2 5-.2 7-.1 14 .3 20.9.5l3.6.1c2.6.1 5.2.1 7.8-.1h.2c1.6-.4 3.1-.8 4.7-1.3.7-.2 1.5-.4 2.2-.5 2.1-.5 4.1-.9 6.3-1.1.9-.1 1.9-.1 2.8-.1l1.3.1zm-449.2 16.97c-.97.15-1.93.27-2.9.34-1.86.13-3.72.13-5.58.08-2.2-.06-4.4-.16-6.5-.23-1.8-.05-3.6-.08-5.4.08h-.2c-1.7 2.75-3.2 5.56-4.7 8.35-1.8 3.24-3.5 6.48-5.3 9.7-.8 1.4-1.5 2.76-2.3 4.13-1.4 2.4-2.7 4.77-4.1 7.14-1.1 1.94-2.3 3.87-3.5 5.77l-2.3 3.5-1.7 2.5c-2.8 3.8-5.9 7.5-10.2 9.6-.9.4-1.8.8-2.8 1-1.2.3-2.4.5-3.6.6-1.8.1-3.6 0-5.4-.3-2.6-.5-5.1-1.5-7.4-2.8-4.4-2.3-8.3-5.5-12.1-8.7l-.7-.6-1 .7-1.3.8c-1.5.9-3 1.7-4.5 2.4-2.4 1.1-4.8 2-7.3 2.8l1.6 1c1.8 1.3 3.5 2.6 5.2 4 3.8 3.3 7.3 6.9 10.4 11 5.3 6.9 9.2 14.8 11.7 23.1 3.3 11.3 3.7 23.4 1.1 34.9-1.5 6.8-4 13.3-7.4 19.4-4 7.2-9.3 13.7-15.6 19.1-6.5 5.6-13.9 10-22 13-8.7 3.1-17.9 4.6-27.1 4.2-9.2-.4-18.2-2.5-26.5-6.3-8.1-3.7-15.4-8.8-21.6-15.1-5.6-5.8-10.2-12.4-13.6-19.6-2.9-6.1-4.9-12.6-5.9-19.2-1.6-10.4-.9-21.2 2.2-31.3 2.8-9.6 7.8-18.5 14.4-26.1 3.3-3.8 7-7.3 11.1-10.3 1.7-1.4 3.6-2.6 5.4-3.7l.2-.1-3.7-.9-1.1-.3c-.7-.2-1.4-.4-2.1-.7-2.5-.9-4.8-2-7.1-3.2-2.1-1-4.1-2.1-6.1-3.1l-1.9-.9c-.6-.3-1.2-.6-1.8-.8l-.6-.2c-.1 0-.2-.1-.3-.1-.4-.1-.9-.1-1.3-.1-.8-.1-1.6 0-2.3 0-2.3.1-4.5.4-6.6.8-3.9.8-7.8 1.8-11.6 3-4.5 1.4-9 2.9-13.4 4.4l-11.1 3.9c-1.6.5-3.2 1.1-4.8 1.6-5.9 1.9-11.8 3.8-17.8 5.2-4.3 1-8.7 1.8-13.1 2.1-1.9.2-3.9.2-5.8.2-1.4 0-2.8-.1-4.2-.2-1-.1-1.9-.1-2.8-.1l-3.6-.1c-3.9-.1-7.9-.1-11.8-.1-5.8-.1-11.7-.3-17.4-1.1-1.5-.2-3.1-.5-4.6-.8-.8-.2-1.7-.3-2.5-.5-.6-.2-1.1-.3-1.7-.5-2.9-1.1-5.5-2.8-8-4.6l-.2-.2V91l1.4.8c2.3 1.37 4.5 2.8 6.6 4.4 3.9 2.9 7.5 6.2 10.7 9.8 6.3 7.16 11.2 15.58 14.2 24.6 3.7 11.2 4.6 23.3 2.5 34.96-1.2 6.87-3.5 13.55-6.7 19.76-3.8 7.36-8.8 14-14.9 19.65-6.5 6-14.1 10.8-22.3 14.1-8.6 3.3-17.8 5-27 4.9-9.5-.1-18.9-2.1-27.5-5.9-8.1-3.6-15.5-8.6-21.8-14.9-6-6.05-11-13.2-14.5-21-2.9-6.4-4.8-13.2-5.7-20.2-.9-7.6-.7-15.35.8-22.9 1.6-7.9 4.5-15.6 8.7-22.5 6.4-10.7 15.6-19.6 26.5-25.66V68c-4.6.25-9.1 1.3-13.6 2.35-3.4.8-6.7 1.68-10.1 2.5-6 1.6-12.5 2.95-19.2 3.15-2.4.1-4.7 0-7-.2-1.7-.2-3.4-.4-5.1-.54L37 72.96l-2.5-.3 38.7 253.97.2 2.3-5.1 853.1c2 .1 4 .14 6 .2 12.6.34 25.3.54 37.9.7 12.3.18 24.6.3 36.9.4 32.1.28 64.2.44 96.3.56 87.1.3 174.2.3 261.3.3 135.5-.1 270.9-.4 406.3-.7 45.8-.1 91.6-.3 137.4-.4l44.8-.2c15.6-.1 31.2-.1 46.8-.2 2.2 0 4.5-.1 6.7-.1 37.6-.8 75.1-5.5 112-12.8 39.2-7.7 77.8-18.2 115.8-30.6 22.9-7.5 45.5-15.7 67.9-24.5 23.1-9.1 45.9-18.7 68.5-29 18.2-8.3 36.2-16.9 54-25.8 17.6-8.9 35-18.1 52.2-27.7l1.7-1-1.2-963.1-2.28.3c-1.8.2-3.6.5-5.46.6-3.2.2-6.4.3-9.5.2-1-.1-2-.1-3-.2l-1.6-.3c-1.1-.2-2.2-.4-3.26-.8-2.54-.8-4.94-2-7.2-3.5-1.3-.9-2.5-1.9-3.7-2.8l-.36-.3-.8.4-1.1.4c-1 .3-1.3.5-2.4.7-1.3.3-2.7.4-4.04.4-.43 0-.9 0-1.4-.1-.54 0-1.2-.2-1.8-.3l-1.5-.2c-.85-.2-1.7-.3-2.6-.4-5.33-.7-10.73-.9-16.13-1h-1.1v.9l1.4.8c2.3 1.3 4.5 2.8 6.6 4.4 3.9 2.9 7.5 6.2 10.7 9.8 6.35 7.1 11.2 15.6 14.2 24.6 3.77 11.2 4.6 23.3 2.55 34.9-1.3 6.9-3.5 13.5-6.7 19.8-3.76 7.3-8.8 14-14.84 19.6-6.5 6-14.1 10.8-22.3 14.1-8.6 3.3-17.76 5-26.95 4.9-9.4-.2-18.8-2.2-27.5-6-8.1-3.5-15.5-8.6-21.7-14.9-6-6.1-11-13.2-14.5-21-2.9-6.4-4.8-13.2-5.7-20.2-.96-7.6-.7-15.4.8-22.9 1.57-8 4.5-15.6 8.7-22.6 6.4-10.7 15.6-19.6 26.45-25.7v-8c-1.1-.2-2.1-.5-3.2-.7l-1.1-.2c-.9-.2-1.8-.5-2.7-.8-1.72-.6-3.4-1.4-5-2.4-2.13-1.2-4.1-2.8-6.1-4.2l-.1-.1c-.4.1-.8.2-1.2.4l-4.84 1.8c-1.4.5-2.8 1-4.2 1.4-2.3.6-4.66 1.1-7 1.3-.86.1-1.68.1-2.5.1-.6 0-1 0-1.6-.1-1.4-.1-2.8-.4-4.1-.7l-.46-.1-.76 1-1 1.2c-1.5 1.7-3.1 3.3-5 4.6-3.2 2.4-7 4-10.94 4.6-1 .2-2.03.3-3.1.3-1.4.1-2.9 0-4.3 0-3.2 0-6.4-.2-9.6-.4-10.8-.6-21.6-2-32.4-3.2l-6.2-.6c-6.8-.7-13.66-1.2-20.5-1.3-2.37-.1-4.73-.1-7.1 0-1.24 0-2.5.1-3.7.2-1.95.3-3.83.9-5.67 1.5l-.4.1V62l1.4.8c1.9 1.13 3.8 2.33 5.6 3.6 4.1 2.98 7.9 6.37 11.3 10.1 7.2 7.94 12.5 17.47 15.5 27.7 3.1 10.5 3.7 21.65 1.7 32.38-1.2 6.9-3.4 13.6-6.6 19.8-3.8 7.32-8.8 14-14.8 19.6-6.5 6-14.1 10.8-22.3 14.07-8.6 3.4-17.8 5.05-26.9 4.94-9.4-.2-18.8-2.2-27.5-6-8.1-3.6-15.5-8.6-21.7-14.9-6-6.1-11-13.2-14.5-21-2.9-6.4-4.8-13.2-5.7-20.2-.9-7.2-.7-14.5.6-21.5 1.3-7.3 3.8-14.5 7.3-21 6.4-12 16.3-22 28.2-28.6V52c-1.2-1.43-2.4-2.9-3.6-4.3l-1.3-1c-.7-.8-1.5-1.53-2.3-2.23-.4-.3-.8-.7-1.3-.93-.3-.16-.7-.26-1-.35-.5-.2-1.1-.2-1.6-.3-1.6-.2-3.2-.2-4.8-.1-2.2.1-4.5.4-6.7.8-3.2.5-6.4 1.2-9.6 2-3.8.9-7.5 1.9-11.3 2.8-1.6.3-3.1.7-4.7 1l-3.3.6-5.5.9c-5.6.9-11.4 1.7-17.1 2.3-21.4 2.3-43.2 2.4-64.3-1.9-5.4-1-10.8-2.4-16.1-4.1h-.2v15.2l2 1.2c1.9 1.1 3.7 2.3 5.5 3.7 4.1 3 7.8 6.4 11.2 10.2 6 6.8 10.7 14.7 13.8 23.3 4.1 11.6 5.1 24.2 2.9 36.2-1.3 6.8-3.5 13.5-6.7 19.7-3.8 7.3-8.8 14-14.9 19.6-6.5 6-14.1 10.8-22.3 14.1-8.6 3.3-17.8 5-26.9 4.9-9.2-.2-18.3-2.1-26.7-5.6-8.2-3.5-15.7-8.5-22-14.6-5.9-5.8-10.8-12.6-14.4-20-3-6.3-5.1-13.1-6.2-20-1.4-9.5-1-19.3 1.5-28.7 3-11.5 8.8-22.1 16.9-30.7 3.6-3.8 7.6-7.3 12-10.2 1.6-1.1 3.3-2.2 5.1-3.2l.2-.1V60l-2 .1c-2.1.1-4.3.1-6.4.1-4.7-.07-9.4-.4-14-1-8.1-1.07-16.1-3-23.8-5.84-4.5-1.7-8.9-3.7-13.2-6-2.2.5-4.3 1.2-6.4 1.8l-1.3.3c-.8.2-1.7.4-2.5.5-1.1.14-2.3.2-3.4.23-1.7.1-3.3.1-4.9.1-6.1.1-12.1-.3-18.1-.5l-3.6-.1c-2.6 0-5.2 0-7.8.1-1.7.1-3.5.2-5.2.6-2 .4-4 1-6 1.8-2.4.9-4.8 2.1-7.1 3.2l-7.8 4c-2.6 1.3-5.2 2.5-7.9 3.7-2.5 1-5.1 2-7.7 2.8l-.2.1c.5.3 1 .6 1.4 1l1.6 1.1c1.7 1.3 3.4 2.8 5.1 4.2 3.7 3.4 7.1 7.2 10 11.4 4.6 6.5 8.1 13.9 10.3 21.6 3.3 11.7 3.5 24.2.6 36-1.6 6.7-4.3 13.2-7.8 19.2-4.2 7.1-9.6 13.4-16 18.7-6.6 5.4-14.2 9.7-22.4 12.4-8.7 3-18.1 4.2-27.3 3.6-9.1-.6-18-2.9-26.2-6.9-7.9-3.8-15.2-9.2-21.2-15.6-5.4-5.9-9.9-12.6-13.1-19.9-2.7-6.2-4.5-12.7-5.3-19.4-1.2-9.7-.5-19.5 2.3-28.9 3.2-10.9 9-21 16.8-29.2 3.4-3.5 7.1-6.7 11-9.4 1.9-1.3 3.7-2.5 5.7-3.6l.3-.2v-12l-1.3-1.2c-3.3-3-6.4-6.3-9.5-9.5l-.4-.5-.4.4-.7.8-.9.9c-.9.7-1.8 1.4-2.8 2-.32.2-.7.3-1.02.5-.6.2-1.2.4-1.75.7l-.8.4c-1.6.9-3.1 2.1-4.6 3.4-2 1.6-3.95 3.3-5.94 5-2.1 1.7-4.2 3.4-6.46 4.8-2.96 1.9-6.1 3.5-9.5 4.6-1.73.5-3.54.9-5.4 1.2l-4.3.3c-2.4.1-4.8.1-7.23.1-7.7-.1-15.5-1.1-23-3-6.7-1.7-13.2-4.1-19.5-7-5.2-2.4-10.3-5.2-15.2-8.2-1.8-1.1-3.6-2.2-5.3-3.4l-1-.7c-.3-.2-.6-.5-1-.6-.2-.1-.4-.2-.7-.2-1.3-.4-2.6-.5-3.92-.6-1.8-.1-3.6-.1-5.5-.1-4.9.1-9.9.6-14.8.9h-2V62l1.4.8 1.7 1c2.1 1.3 4.1 2.6 6 4.1 4 3.1 7.6 6.6 10.9 10.5 5.6 6.6 9.9 14.3 12.7 22.5 4.1 11.9 4.9 24.9 2.4 37.3-1.4 6.8-3.8 13.4-7.1 19.5-4 7.2-9.2 13.8-15.3 19.2-6.7 5.9-14.4 10.5-22.7 13.6-8.7 3.1-17.9 4.6-27.1 4.2-9.2-.4-18.2-2.5-26.5-6.3-8.1-3.63-15.4-8.8-21.6-15.1-5.8-5.9-10.5-12.83-13.9-20.36-2.9-6.4-4.9-13.2-5.8-20.1-1-7.6-.7-15.36.8-22.9 1.5-7.5 4.2-14.74 8-21.4 6.4-11.2 15.9-20.53 27.1-26.8V39c-6.3.06-12.6.38-18.8 1.1-2 .2-3.9.5-5.8.8l-3.7.7c-.5.1-.5.1-1.1.15-1.5.2-3 .26-4.5.2-3.6-.13-7.1-.94-10.45-2.1-3.8-1.3-7.4-3.1-11.1-4.7l-1.6-.6-.5-.2-.6.1z" fill="#0f3d44" fill-rule="nonzero"/>
  <path d="M302.62 621.88c18.34 0 44.34 1 44.34 34 0 23.33-16 37-39 37-21.34 0-34.34-14.67-37-26-3-11.67-11.67-18-23-16-11 2-19.34 11-17 23 5.66 27 32 54.33 78.33 54.33 42.3 0 79-27.3 79-68 0-43-30-53.6-48-55.6 18.3-1.6 42.6-17.6 41.6-54-1-40.3-32.4-58.6-70-59.6-46.4-1-72 27.4-77.7 54.4-2.4 12 6 21 17 23 11.3 2 20-4.3 23-16 2.6-11.3 12.3-26 33.6-26 21.3-.3 33.3 10 33.3 30 0 31-22.4 33.7-39 33.7-8.7 0-16 7.4-16 16 0 9 7.3 16 16.3 16zm173.68-20c-17.68 7.66-39.34 28-40.68 56.33-2.33 46.7 33 70 82.67 70 45.3 0 84.6-25.3 84.6-72.3 0-27.3-15.4-45.3-43.7-55 19.6-8.3 33.3-26.6 33.3-53.3 0-39-35.7-56.3-71.4-56.3-36 0-76 17.7-77 60-.7 21.7 8.6 40 32 50.7zm9-46c-.68-18.67 14.32-29.67 34-29.67 24.32 0 34.32 12.7 33 29-1 17-12.34 26.4-20.34 32-31-7.6-46-14.6-46.67-31.3zm18 61c29 8.33 58.32 15.66 58.32 38.33 0 21.4-17.33 38-42.66 37.7-19.67 0-41.34-6-41.34-36.6 0-18 10.34-28.6 25.67-39.3zM737.96 487.2c-47 0-89.34 34-89.34 117.68 0 78.33 31.67 123.33 89.34 123.33 59.33 0 88-46 88-123.3 0-84.3-41.34-117.6-88-117.6zm0 34.68c25 0 46.66 21.66 46.66 82.66 0 63.67-15.33 88.34-46.66 88.34-31.34 0-47.67-24.67-47.67-88.34 0-60.33 22-82.66 47.6-82.66zM883.3 587.2c-2.68 21.68 3.32 31.68 20.66 34.34 20.66 3 22.33-18.33 51-17 22 1 36.33 16.34 36.33 42.67 0 28.7-14.4 46-40 46-21.7 0-32.4-11-36-21.6-3.4-10.6-14.4-16.3-25-13.3-10.7 3.4-16.4 14.7-13.4 25 7 24 35 45.7 78.6 45 51.3-1 77-39 77.3-81 .6-47.6-30-74-71-73.3-23.7.4-36 10.4-40 16l7-61.3h82.6c9.3 0 15.3-8.6 15.3-18 0-9.3-6-17.6-15.4-17.6h-102c-9.4 0-16.7 6-17.7 15.4l-8.7 79zm331 44.68v-113c0-15.67-12.68-28.34-28.34-28.34-8.34 0-16.67 2.67-22.67 11l-88.7 118.66c-4 5.34-7.7 12-7.7 19.34 0 15.67 12.6 28.34 28.3 28.34h77.3v40.66c0 12.34 9.3 19.67 21 19.67 11.3 0 20.6-7.3 20.6-19.6v-40.7h16c10 0 18-8 18-18s-8-18-18-18h-16zm-42.34-89.67v89.7h-65.67l65.6-89.6zm199.66-55c-47 0-89.33 34-89.33 117.7 0 78.4 31.6 123.4 89.3 123.4 59.3 0 88-46 88-123.3 0-84.3-41.4-117.7-88-117.7zm0 34.7c25 0 46.67 21.7 46.67 82.7 0 63.7-15.4 88.4-46.7 88.4-31.4 0-47.7-24.6-47.7-88.3 0-60.3 22-82.6 47.6-82.6z" fill="#1b7686" fill-rule="nonzero"/>
</svg>
