<svg width="1188" height="1142" xmlns="http://www.w3.org/2000/svg" fill-rule="evenodd" clip-rule="evenodd" stroke-linejoin="round" stroke-miterlimit="1.41">
  <path d="M588.4.1c24.78.06 49.55.98 74.27 2.86C724.15 7.62 785.23 18 844.7 34.36c43.56 11.98 86.26 27.2 127.46 45.75 17.87 8.1 35.44 16.8 52.68 26.1l1.46.8c1.18.7 2.2 1.2 3.28 2 1.74 1.3 3.17 3.1 4.17 5 .66 1.3 1.13 2.7 1.38 4.2.26 1.4.3 2.9.1 4.4-.26 2.2-1.02 4.3-2.2 6.1-1.2 1.9-2.8 3.4-4.65 4.6-1.25.8-2.6 1.4-4 1.7-2.83.7-5.85.6-8.6-.4l-1.98-.9c-2.35-1.3-4.7-2.6-7.06-3.8-13.34-7.1-26.87-13.8-40.6-20.1-41.67-19.2-84.97-34.8-129.18-46.9-57.66-16-116.88-26-176.5-30.5-19.03-1.4-38.1-2.3-57.18-2.6-57.1-1-114.27 2.9-170.64 12-72.04 11.7-142.82 31.7-209.8 60.8-16.24 7.1-32.25 14.7-48 22.8l-1.4.7c-.66.3-1.3.6-2 .8-2.06.7-4.28 1-6.45.7-1.5-.2-2.9-.6-4.2-1.2-1.4-.6-2.6-1.4-3.7-2.3-1.7-1.4-3-3.2-3.8-5.2-.9-2-1.3-4.2-1.2-6.4 0-1.4.3-2.9.8-4.3 1-2.7 2.8-5.1 5.1-6.8.6-.42 1.2-.8 1.8-1.14l7.1-3.7c18-9.1 36.2-17.5 54.7-25.25 18.4-7.6 37-14.7 55.9-21.1C335 30.4 394.3 16.85 454.3 8.8c27.37-3.64 54.92-6.14 82.52-7.5C550.9.6 565 .23 579.07.1c3.1 0 6.22-.02 9.33 0zm433.83 1002.93c.7.12 1.44.2 2.14.38 2.12.6 4.1 1.6 5.78 3 1.1 1 2.08 2.1 2.87 3.3.8 1.2 1.4 2.6 1.8 4 .98 3.5.6 7.4-1.07 10.6-1 2-2.43 3.7-4.17 5-.58.5-1.22.8-1.83 1.2l-5.84 3.2c-14.3 7.7-28.8 14.9-43.5 21.7-49.6 22.8-101.4 40.8-154.3 54-73.2 18.4-148.6 27.8-224 28.8-56.3.7-112.8-3.2-168.4-12-75.6-11.9-149.9-32.8-220.2-63.3-16.8-7.3-33.4-15.2-49.8-23.6l-1.4-.7c-.6-.3-1.3-.7-1.9-1.1-2.3-1.7-4.2-4.1-5.1-6.8-.7-2.1-1-4.3-.8-6.5.3-2.1 1-4.3 2.1-6.1.8-1.2 1.7-2.3 2.8-3.3 1.1-1 2.4-1.7 3.7-2.3 1.4-.6 2.8-1 4.2-1.2 2.2-.2 4.4 0 6.5.7.7.3 1.4.6 2 .9 2.3 1.2 4.6 2.4 6.9 3.5 16.4 8.2 33 15.9 49.8 23.1 65.9 27.85 135.3 47.05 205.9 58.2 54.1 8.5 108.8 12.3 163.5 11.6 19.1-.26 38.2-1.07 57.3-2.4 62.6-4.5 124.8-15.1 185.2-32.1 44.1-12.4 87.2-28.2 128.7-47.6 14.2-6.6 28.1-13.7 41.8-21.1l1.4-.8c.7-.3 1.3-.63 2-.9 1.8-.64 2.4-.6 4.3-.84l2.2.1z" fill="#530000" fill-rule="nonzero"/>
  <ellipse cx="593.76" cy="569.03" rx="579" ry="434.22" fill="#ffa4a4"/>
  <path d="M15.24 586.74c-.32-5.87-.48-11.78-.48-17.7 0-239.66 259.44-434.23 579-434.23 78.54 0 153.45 11.8 221.77 33.1L15.23 586.8zm1104.1-200.02c24.07 38.94 40.7 81 48.44 125.14L324.26 953.38c-51.7-20.45-98.8-46.6-139.78-77.33l934.85-489.33z" fill="#ffd1d1"/>
  <path d="M595.67 120.23c8.22.02 16.44.16 24.65.44 16.82.55 33.62 1.65 50.37 3.3 70 6.84 139.2 23.2 204.4 49.77 35.7 14.56 70.2 32.2 102.6 53.03 24.3 15.6 47.4 33 69 52.23 34.2 30.52 64.4 65.73 87.9 105.1 3.5 5.83 6.8 11.72 10 17.7 10.1 19.06 18.6 38.95 25.3 59.46 6.4 19.55 11 39.65 13.9 60 4.7 34.03 4.4 68.74-1.1 102.65-3.5 21.7-9.1 43.1-16.6 63.8-4.9 13.5-10.6 26.8-17 39.6-5 10-10.4 19.7-16.1 29.2-4.3 7.1-8.8 14.1-13.5 20.9-30.7 44.3-69.7 82.4-113 114.2-6.4 4.7-13 9.3-19.6 13.7-8.9 6-18 11.7-27.3 17.2-12.2 7.3-24.7 14.1-37.4 20.5-17 8.6-34.4 16.4-52.1 23.5-21.4 8.6-43.2 16-65.4 22.4-30.4 8.8-61.3 15.5-92.5 20.3-38.7 6-77.8 8.9-116.9 9-39.2.1-78.4-2.7-117.1-8.4-31.3-4.6-62.3-11.2-92.7-19.8-22.2-6.2-44.1-13.6-65.6-22-17.8-7-35.2-14.7-52.3-23.2-12.8-6.3-25.3-13.1-37.6-20.3-9.3-5.4-18.4-11.1-27.4-17.1-6.6-4.4-13.2-8.9-19.6-13.6C139 862 99.4 823.6 68.3 779c-4.77-6.8-9.3-13.7-13.66-20.8-5.8-9.5-11.24-19.2-16.23-29.1-6.5-12.9-12.2-26.1-17.2-39.6-7.5-20.6-13.2-42-16.8-63.7-5.6-33.8-6.1-68.6-1.5-102.6 2.9-21.3 7.8-42.3 14.6-62.8 6.6-20 15-39.4 24.9-58.1 3.4-6.4 7-12.7 10.7-18.9 23.5-38.9 53.5-73.7 87.3-103.9 22.1-19.84 45.7-37.5 70.5-53.34 31.6-20.14 65.1-37.3 99.8-51.5 65.7-27 135.5-43.54 206.1-50.46 16.2-1.6 32.3-2.66 48.5-3.24 8.2-.3 16.4-.46 24.7-.5h5.7zm-3.75 29.16c-7.9 0-15.83.1-23.75.4-15 .5-30 1.4-44.95 2.8-67.9 6.3-135.08 21.9-198.34 47.5-32.7 13.2-64.35 29.1-94.26 47.9-23.67 14.8-46.24 31.4-67.25 49.8-37.07 32.5-69.35 70.7-92.97 114.1-9.15 16.7-16.95 34.1-23.2 52.1-6.63 19-11.5 38.7-14.47 58.6-4.68 31.5-4.54 63.7.4 95.2 2.78 17.7 7.1 35.2 12.8 52.3 4.2 12.5 9.13 24.8 14.76 36.8 4 8.4 8.3 16.8 12.9 24.9 3.3 5.9 6.8 11.6 10.5 17.3 27.6 43 63.7 80.3 104.2 111.4 6.7 5.2 13.6 10.2 20.6 15 9.2 6.4 18.6 12.5 28.1 18.3 11.5 7 23.3 13.6 35.3 19.8 16.1 8.3 32.6 15.9 49.4 22.8 22.4 9.2 45.3 17.1 68.6 23.8 29.1 8.4 58.8 14.8 88.8 19.4 37.2 5.7 74.9 8.5 112.6 8.6 37.7.1 75.4-2.6 112.8-8.2 30-4.5 59.8-10.8 89-19.1 23.3-6.6 46.4-14.5 68.9-23.6 16.8-6.8 33.4-14.4 49.5-22.6 12-6.2 23.9-12.7 35.5-19.7 9.6-5.8 19-11.9 28.3-18.2 7-4.9 13.9-9.8 20.7-15 41.1-31.2 77.8-68.7 105.9-112.1 3.7-5.7 7.2-11.5 10.6-17.4 4.6-8.1 9-16.4 13-24.9 5.6-11.9 10.6-24.2 14.9-36.7 5.9-17.4 10.3-35.36 13.2-53.5 4.9-31.5 5.1-63.7.4-95.3-3-20.4-8.1-40.5-14.9-59.9-6.2-17.55-13.8-34.56-22.7-50.9-23.7-43.3-56-81.6-93-114.07-21-18.4-43.6-35-67.3-49.87-29.9-18.7-61.6-34.63-94.3-47.9-63.1-25.4-130.3-41-198.2-47.3-15-1.4-30-2.3-45-2.8-7.3-.2-14.6-.3-22-.4h-5.5z" fill="#530000" fill-rule="nonzero"/>
  <path d="M842 702c-46.13 80.2-132.7 134.25-231.77 134.25-147.48 0-267.2-119.74-267.2-267.22 0-147.48 119.72-267.2 267.2-267.2 100.9 0 188.8 56.03 234.28 138.66L594.2 573.9 842.08 702z" fill="#530000"/>
</svg>
