<svg width="1192" height="1142" xmlns="http://www.w3.org/2000/svg" fill-rule="evenodd" clip-rule="evenodd" stroke-linejoin="round" stroke-miterlimit="1.41">
  <path d="M592.23.3c24.78.06 49.56 1 74.28 2.86C728 7.82 789.1 18.2 848.6 34.56c43.5 11.98 86.2 27.2 127.4 45.74 17.87 8.05 35.44 16.74 52.68 26.04l1.46.8c1.18.63 2.2 1.13 3.28 1.96 1.74 1.32 3.17 3.03 4.17 4.97.6 1.3 1.1 2.68 1.3 4.12.2 1.4.3 2.9.1 4.3-.3 2.1-1 4.2-2.2 6.1-1.2 1.8-2.8 3.4-4.7 4.5-1.3.7-2.6 1.3-4 1.7-2.9.7-5.9.5-8.6-.5-.7-.3-1.3-.6-2-.9l-7.1-3.8c-13.4-7.1-26.9-13.8-40.6-20.1-41.6-19.1-84.9-34.7-129.2-46.9-57.6-15.9-116.8-26-176.5-30.5-19-1.5-38.1-2.3-57.2-2.7-57.1-1-114.3 2.9-170.7 12-72.1 11.6-142.9 31.7-209.8 60.7-16.3 7-32.3 14.6-48 22.7l-1.4.7c-.7.3-1.3.6-2 .8-2.1.7-4.3.9-6.5.6-1.5-.2-2.9-.6-4.2-1.2s-2.6-1.4-3.7-2.4c-1.7-1.4-3-3.2-3.8-5.3-.9-2-1.3-4.2-1.2-6.4.1-1.5.3-2.9.8-4.3 1-2.7 2.8-5.2 5.1-6.9.6-.46 1.2-.8 1.9-1.18l7.1-3.65c17.9-9 36.1-17.4 54.6-25.14 18.4-7.5 37-14.6 55.9-21C338.8 30.56 398 17 458 8.96c27.4-3.6 54.94-6.1 82.54-7.5 14.2-.63 28.3-1 42.36-1.13h9.33zm433.84 1002.93c.7.13 1.44.2 2.14.38 2.2.6 4.1 1.6 5.8 3 1.1 1 2.1 2.1 2.9 3.3.8 1.2 1.4 2.6 1.8 4 1 3.5.6 7.4-1 10.6-1 2-2.4 3.7-4.1 5-.6.5-1.2.8-1.8 1.2l-5.8 3.2c-14.3 7.7-28.8 14.9-43.6 21.7-49.6 22.8-101.4 40.8-154.3 54-73.2 18.3-148.6 27.8-224 28.8-56.3.8-112.8-3.2-168.4-12-75.6-11.9-149.9-32.8-220.2-63.3-16.8-7.3-33.4-15.2-49.8-23.6l-1.4-.7c-.6-.3-1.2-.7-1.8-1.1-2.3-1.7-4.2-4.1-5.1-6.9-.7-2-1-4.3-.8-6.4.3-2.1 1-4.2 2.1-6.1.8-1.2 1.7-2.4 2.8-3.3 1.1-.9 2.4-1.7 3.7-2.3 1.4-.6 2.8-1 4.2-1.2 2.2-.2 4.4 0 6.5.7.7.2 1.3.6 2 .9 2.3 1.2 4.6 2.4 6.9 3.5 16.3 8.3 32.9 16 49.8 23.1 65.9 27.9 135.3 47.1 205.9 58.2 54 8.5 108.8 12.3 163.5 11.6 19.1-.2 38.2-1.1 57.3-2.4 62.6-4.5 124.8-15.1 185.2-32.1 44.05-12.4 87.17-28.2 128.64-47.6 14.17-6.6 28.1-13.7 41.8-21.1l1.4-.8c.7-.3 1.3-.6 2-.9 1.8-.7 2.37-.6 4.3-.8.7 0 1.5 0 2.2.06z" fill="#0f3d44" fill-rule="nonzero"/>
  <ellipse cx="597.6" cy="569.23" rx="579" ry="434.22" fill="#b7e3ec"/>
  <path d="M19.08 586.95c-.32-5.88-.48-11.8-.48-17.72C18.6 329.58 278.04 135 597.6 135c78.54 0 153.45 11.76 221.77 33.05l-800.3 418.9zm1104.1-200.02c24.07 38.94 40.7 81 48.43 125.13L328.1 953.58c-51.7-20.45-98.8-46.6-139.78-77.33l934.85-489.32z" fill="#dbf1f5"/>
  <path d="M599.5 120.43c8.23.03 16.44.16 24.66.44 16.82.56 33.62 1.65 50.37 3.3C744.56 131 813.8 147.37 879 173.93c35.7 14.56 70.2 32.2 102.67 53.04 24.3 15.6 47.46 33 69 52.22 34.22 30.5 64.42 65.7 87.98 105.1 3.48 5.8 6.8 11.7 10 17.7 10.1 19 18.64 38.9 25.32 59.4 6.37 19.5 11.04 39.6 13.9 60 4.75 34 4.4 68.7-1.08 102.6-3.5 21.7-9.1 43-16.6 63.7-4.9 13.5-10.6 26.7-17 39.6-5 9.9-10.4 19.6-16.1 29.1-4.3 7.1-8.9 14-13.6 20.8-30.7 44.2-69.7 82.4-113 114.1-6.4 4.7-13 9.3-19.6 13.7-8.9 6-18 11.7-27.3 17.2-12.3 7.2-24.8 14.1-37.5 20.5-17 8.6-34.4 16.4-52.1 23.4-21.4 8.5-43.3 16-65.4 22.3-30.4 8.7-61.3 15.4-92.5 20.2-38.7 5.9-77.8 8.9-116.9 9-39.2.1-78.4-2.7-117.2-8.5-31.3-4.7-62.3-11.3-92.7-19.9-22.2-6.3-44.1-13.6-65.6-22.1-17.8-7-35.2-14.7-52.3-23.2-12.8-6.4-25.3-13.1-37.6-20.3-9.3-5.5-18.5-11.2-27.4-17.1-6.7-4.4-13.2-9-19.7-13.6-44-31.9-83.6-70.3-114.7-114.8-4.8-6.8-9.3-13.8-13.7-20.9-5.8-9.5-11.2-19.2-16.2-29.1-6.5-12.9-12.2-26.1-17.1-39.6-7.5-20.6-13.2-42-16.8-63.7-5.5-33.8-6-68.5-1.4-102.6 2.9-21.3 7.8-42.4 14.5-62.8 6.6-20 15-39.5 24.9-58.1 3.4-6.4 7-12.7 10.7-18.9 23.4-38.9 53.3-73.7 87.2-103.9 21.9-19.6 45.6-37.3 70.4-53.1 31.6-20.1 65-37.3 99.7-51.5 65.9-26.6 135.7-43.2 206.3-50.1 16.1-1.6 32.3-2.7 48.5-3.3 8.2-.3 16.4-.45 24.6-.5h5.7zm-3.74 29.16c-7.92 0-15.84.1-23.75.4-15 .5-30 1.4-44.9 2.8-67.9 6.3-135.1 21.9-198.3 47.5-32.7 13.2-64.3 29.1-94.2 47.9-23.7 14.8-46.2 31.4-67.2 49.8-37 32.5-69.3 70.7-93 114.1-9.1 16.7-16.9 34.1-23.1 52.1-6.6 19-11.5 38.7-14.4 58.6-4.6 31.5-4.5 63.7.4 95.2 2.8 17.8 7.1 35.3 12.8 52.3 4.2 12.5 9.2 24.8 14.8 36.8 4 8.5 8.3 16.8 12.9 24.9 3.4 5.9 6.9 11.6 10.5 17.3 27.7 43 63.8 80.3 104.3 111.4 6.8 5.2 13.6 10.2 20.6 15 9.2 6.4 18.6 12.5 28.2 18.3 11.6 7 23.4 13.6 35.4 19.8 16.1 8.3 32.6 15.9 49.4 22.8 22.5 9.2 45.4 17.1 68.7 23.8 29.2 8.4 58.9 14.8 88.9 19.4 37.2 5.7 74.9 8.5 112.6 8.6 37.7.1 75.5-2.6 112.8-8.2 30-4.5 59.8-10.8 89.1-19.1 23.4-6.6 46.4-14.5 68.9-23.6 16.8-6.8 33.4-14.3 49.57-22.6 12.04-6.1 23.9-12.7 35.5-19.7 9.6-5.8 19.05-11.86 28.3-18.2 7-4.8 13.9-9.8 20.7-14.97 41.1-31.2 77.8-68.67 105.9-112.07 3.7-5.7 7.2-11.48 10.6-17.35 4.64-8.1 9-16.4 13-24.85 5.66-11.9 10.65-24.2 14.9-36.7 5.9-17.4 10.35-35.3 13.2-53.5 4.94-31.5 5.1-63.7.4-95.28-3-20.4-8.05-40.46-14.9-59.9-6.2-17.5-13.83-34.5-22.73-50.87-23.6-43.36-55.9-81.6-93-114.1-21.03-18.4-43.6-35-67.3-49.8-29.9-18.75-61.52-34.67-94.23-47.9-63.5-25.4-130.64-41-198.54-47.3-14.95-1.4-29.94-2.36-44.95-2.86-7.3-.27-14.6-.4-21.94-.4H596z" fill="#0f3d44" fill-rule="nonzero"/>
  <path d="M845.85 702.2c-46.14 80.2-132.7 134.25-231.78 134.25-147.48 0-267.22-119.74-267.22-267.22 0-147.48 119.74-267.2 267.22-267.2 100.9 0 188.8 56.03 234.27 138.66L597.97 574.1l247.9 128.08z" fill="#0f3d44"/>
</svg>
