<svg width="1021" height="1484" viewBox="0 0 1021 1484" xmlns="http://www.w3.org/2000/svg" fill-rule="evenodd" clip-rule="evenodd" stroke-linejoin="round" stroke-miterlimit="1.41">
  <path d="M735.04 500.7L58.4 654.9c-23.37 0-42.36 18.98-42.36 42.36l37.5 618.6c0 23.37 16 39.9 42.37 54.85l198.1 94.5c-24.9-7.9-25.2-15.4-25.2-38.8l-25-618.6c0-23.3 19-42.3 42.4-42.3l693.7-152c2.3-1.3-229.1-106.6-244.8-112.7z" fill="#98ceda"/>
  <path d="M118.98 1295.63l147.1 64.8 2.67 65.93c0 15.6.13 24.12 7.6 30.43l17.6 8.3c-8.3-2.7-13.86-5.3-17.6-8.4L95.9 1370.6c-26.3-14.92-42.3-31.46-42.3-54.84l-37.5-618.6c0-23.37 19-42.36 42.38-42.36l14.4-3.27 46.13 644.1z" fill="#6fbdcc"/>
  <path d="M110.02 643.12l200.85 108.7c.7.42 1.42.8 2.1 1.22 1.4.85 2.73 1.76 4.02 2.73.9.72 1.8 1.48 2.7 2.27L286 765.4c-23.38 0-42.36 19-42.36 42.4l.7 17.1L16.3 701.4l-.27-4.1c0-23.4 19-42.4 42.37-42.4l51.62-11.75zM607.86 529.7l127.18-29c7.3 2.82 60.84 26.92 116 52.13l116.84 63.24-143.33 31.4L613.27 533.1l-2.1-1.2c-1.14-.7-2.24-1.43-3.3-2.2z" fill="#cbe6ec"/>
  <path d="M736.13 486.17c.7.1 1.44.16 2.15.32 1.3.3 2.54.8 3.78 1.3l4.12 1.7c3.3 1.4 6.6 2.8 9.9 4.3 13.2 5.8 26.35 11.7 39.5 17.6 39.55 17.7 79.04 35.7 118.44 53.8 9.64 4.4 19.28 8.9 28.9 13.3 7.78 3.6 15.55 7.2 23.3 10.9 4.9 2.3 9.78 4.6 14.63 7l4.24 2.1c1.8 1 3.6 2 5.1 3.4l1.4 1.5c.3.3.5.7.8 1.1 1 1.7 1 1.7 1.8 3.6.5 2.2.5 2.2.7 4.5-.1.7-.1 1.4-.2 2.1-.3 1.9-.6 2.3-1.2 4-.4.6-.7 1.3-1 1.8-1.1 1.5-1.5 1.8-2.8 3.1-1.3.9-1.6 1.2-3 1.9-1.5.7-1.9.8-3.4 1.2L289.2 779.6c-.5.08-1 .2-1.5.25-.9.1-1.8.08-2.7.1l-1.42.1c-2.86.27-5.65.95-8.3 2.07-4.53 1.92-8.5 5.06-11.47 9-1.6 2.15-2.9 4.54-3.8 7.07-1 2.9-1.6 6-1.6 9.1v.1l25 618.5c0 2.1 0 4.2.1 6.3.1 2.6.1 5.2.4 7.9.1.8.2 1.7.4 2.5.2.6.3 1.2.6 1.7l.1.1 15.4 7.3c.7.4 1.4.7 2 1.1 1.9 1.3 3.5 3.1 4.6 5.1.8 1.3 1.3 2.8 1.5 4.3.3 1.5.3 3.1.1 4.6-.5 3.8-2.6 7.3-5.7 9.6-1.2.9-2.6 1.6-4.1 2.1-2.2.7-4.5.9-6.8.5-1.6-.3-3.1-.9-4.7-1.4-5.2-1.8-10.4-3.9-15.1-6.8-1.1-.7-2.2-1.4-3.2-2.2l-179.8-85.1c-2.7-1.6-5.4-3.2-8.1-4.9-2-1.3-4-2.6-6-4-1.7-1.2-3.5-2.5-5.2-3.8-8.9-6.8-17-14.9-22.7-24.7-1.1-1.9-2.1-3.9-3-5.9-1.2-2.9-2.3-5.8-3.1-8.9-.8-3.1-1.3-6.2-1.7-9.4l-.3-5.5v-.2L1.5 697.7c0-1 0-.98.02-1.9.06-1.9.2-3.87.44-5.78.56-4.4 1.66-8.8 3.25-13 3-7.9 7.9-15.1 14-20.98 5.7-5.38 12.4-9.58 19.7-12.26 4.2-1.6 8.6-2.6 13.1-3.1 1.9-.3 3.8-.4 5.8-.4h-.9l675-153.8 2.2-.33h2.2zM61.63 669.1c-.5.08-1.03.2-1.55.26-.93.1-1.85.1-2.77.12-.4.02-.9.05-1.4.1-2.9.27-5.8 1-8.6 2.2-6.8 2.96-12.2 8.68-14.8 15.6-.7 2.03-1.3 4.15-1.6 6.3-.1.95-.2 1.9-.2 2.84v.34l37.5 618.5v1.62c.1 2.5.4 5 1.1 7.43.3 1.1.7 2.2 1.1 3.3 2.6 6.4 7.3 11.8 12.4 16.3 1 .9 2.1 1.8 3.1 2.6l3.9 3c1.9 1.4 3.9 2.7 5.8 3.9 2.1 1.4 4.3 2.7 6.5 3.9l.7.4 151.5 72.3v-3.4l-25-618.6c0-2 .1-4 .3-6 .5-4.7 1.5-9.4 3.2-13.8 2.2-6 5.5-11.7 9.6-16.6 6.6-7.9 15.3-14 25-17.5 4-1.4 8.2-2.3 12.4-2.8 1.9-.2 3.9-.3 5.8-.4h-.9l652-143-19.6-9.1c-37.6-17.4-75.4-34.5-113.2-51.6-12.6-5.7-25.2-11.3-37.8-17-10.3-4.6-20.7-9.2-31.1-13.7l-.9-.4-672.3 153z" fill="#0f3d44" fill-rule="nonzero"/>
  <path d="M1005.1 653.6c0-23.38-18.98-42.36-42.36-42.36L286.1 765.4c-23.37 0-42.35 19-42.35 42.37l29.16 618.6c0 23.37 19 42.36 42.4 42.36l622.5-154.17c23.4 0 42.4-18.98 42.4-42.37l25-618.6z" fill="#46acbf"/>
  <path d="M258.8 1127.05l-15.05-319.28c0-23.38 18.98-42.37 42.36-42.37l676.7-154.16c23.4 0 42.4 18.98 42.4 42.37l-3.4 84.6-742.9 388.9zm731.03-95.55L272 1407.23l-6.92-146.87 730.97-382.6-6.22 153.74z" fill="#6abfcf"/>
  <path d="M981.33 1242.03l-1.22 30.16c0 23.3-18.9 42.3-42.3 42.3l-622.5 154.2c-23.4 0-42.3-19-42.3-42.4l-.4-10.1c.4-.1.8-.3 1.2-.4L981.4 1242z" fill="#3091a2"/>
  <path d="M246.07 779.25s233.3 72.17 403.03 33.23c170.5-39.13 284.04-182.22 330.4-198.3 46.35-16.08-733.43 165.08-733.43 165.08z" fill="#c2f4ff"/>
  <path d="M963.47 596.66c1.93.04 3.87.15 5.8.37 4.2.48 8.38 1.44 12.4 2.85 6.7 2.37 12.96 6 18.34 10.67 7.1 6.16 12.7 14.05 16 22.83 1.7 4.4 2.8 9.02 3.4 13.7.3 2.25.4 4.5.4 6.78l-25 618.67v1.85l-.1 1.46c-.1 1.92-.3 3.82-.6 5.72-.7 4.16-1.8 8.25-3.4 12.15-3.5 8.7-9.2 16.5-16.5 22.5-5.1 4.3-11 7.6-17.3 9.8-3.8 1.4-7.7 2.3-11.7 2.8-2.1.3-4.3.4-6.5.5h1.1L319 1483l-1.8.32c-.6.05-1.2.1-1.8.1-.2.03-1.28 0-1.4 0l-2.2-.1c-2.16-.13-4.3-.4-6.4-.77-6.9-1.23-13.5-3.74-19.5-7.37-8-4.86-14.75-11.7-19.5-19.75-3.4-5.8-5.8-12.2-7-18.86-.57-3.07-.85-6.2-.9-9.32v-.35l-29.2-618.7.02-1.74c.04-2.14.2-4.3.5-6.45.6-4.2 1.7-8.3 3.2-12.3 3.25-8.5 8.6-16.3 15.46-22.3 5.5-4.8 11.93-8.6 18.86-11.1 4-1.4 8.17-2.4 12.4-2.8 1.92-.2 3.84-.3 5.8-.4h-.97l675-153.8 1.66-.3 1.7-.1h.62zM289.35 779.62c-.52.1-1.04.2-1.56.27-1 .1-1.9 0-2.8.1l-1.4.1c-2.9.2-5.7.9-8.3 2-3.4 1.4-6.5 3.5-9.1 6.2-2.8 2.8-4.9 6.2-6.3 9.8-1.1 2.9-1.6 6-1.7 9.2l29.1 618.5v1.5c.1 3.1.7 6.1 1.9 9.1 1.1 2.9 2.8 5.6 4.8 8 2.9 3.3 6.6 6 10.8 7.6 2.7 1.1 5.5 1.7 8.4 1.9h.2l620.5-153.7 1.7-.3c.5-.1 1.1-.1 1.7-.2.4-.1.8 0 1.2-.1l1.4-.1c2.7-.3 5.4-.9 8-2 4.7-2 8.9-5.3 11.9-9.4 1.5-2.1 2.7-4.4 3.6-6.8.8-2.2 1.3-4.4 1.5-6.7.1-1.1.1-2.1.1-3.2l25-618.5c0-2.8-.5-5.6-1.4-8.3-1.2-3.8-3.2-7.2-5.9-10.1-2.6-2.8-5.7-5.1-9.2-6.7-2.1-1-4.3-1.6-6.5-2-1-.2-2.1-.3-3.1-.4h-.3l-674.5 154z" fill="#0f3d44" fill-rule="nonzero"/>
  <ellipse cx="242.85" cy="683.27" rx="94.69" ry="64.89" fill="#155965"/>
  <ellipse cx="743.73" cy="578.33" rx="94.57" ry="61.75" fill="#155965"/>
  <path d="M531.8 16.03c184.85.93 284.22 180.08 284.6 333.2v214.1c-1 35.92-37.65 52.08-73.86 51.9-35.92-.2-72.06-17.3-73-51.9 0-71.65.17-143.3 0-214.96-.7-94.9-65.02-212.82-186.27-176.53-13.78 4.12-43.17 15.82-54.34 25.84-72.44 64.96-114.45 142.9-114.7 237.92v233.28c-.97 36.02-35.5 54.37-70.6 55.66-36.98 1.36-75.27-20.15-76.23-55.66V435.4c.48-190.2 133.26-417.58 361.93-419.37h2.46" fill="#98ceda" fill-rule="nonzero"/>
  <path d="M260.07 722.65c0-74.64-.13-149.28 0-223.92.05-7.75.24-15.5.6-23.23.9-18.92 2.8-37.8 5.62-56.54 3.1-20.83 7.4-41.5 12.8-61.86 4-15.2 8.8-30.26 14.2-45.05 4-11 8.4-21.87 13.2-32.54 3.7-8.2 7.7-16.3 11.9-24.3 3-5.6 6.1-11.2 9.4-16.7 2.9-4.9 5.9-9.8 9.1-14.6 17.9-27.3 39.7-52.4 65.7-72.5 3.5-2.6 7-5.2 10.7-7.7 5.5-3.7 11.1-7.2 16.9-10.5 7.2-4 14.7-7.7 22.4-10.9 10.2-4.2 20.7-7.6 31.4-10.1 9.3-2.2 18.9-3.7 28.4-4.5 4.2-.3 8.5-.5 12.8-.5h1.9c4.5.1 9.1.2 13.6.6 8.8.8 17.6 2.2 26.2 4.4 9 2.3 17.7 5.4 26.2 9.2 6.6 2.9 12.9 6.3 19.1 10.1 4.8 3 9.4 6.2 13.9 9.6 3.2 2.5 6.4 5 9.5 7.7 22.8 19.8 40.7 44.8 54.6 71.4 2.3 4.5 4.6 9.1 6.7 13.7 2.8 6.1 5.5 12.3 7.9 18.6 3.3 8.3 6.3 16.8 9 25.3 3.5 11.2 6.6 22.4 9.2 33.8 3.5 14.9 6.2 30 8.2 45.1 2.6 19.5 4 39.2 4 58.9V615c-33.5-2.2-65.2-19.28-66.1-51.63 0-71.66.2-143.3 0-214.97-.7-94.9-65-212.82-186.3-176.53-13.7 4.13-43.1 15.83-54.3 25.83-72.4 65-114.5 142.9-114.7 237.9v233.3c-.8 30.4-25.4 48.2-54.2 53.8z" fill="#59a2b0"/>
  <path d="M212.66 720.36c-24.76-7.82-44.57-26.07-45.26-51.48V435.4c.48-190.2 133.26-417.58 361.93-419.37h2.46c184.8.93 284.2 180.08 284.6 333.2v214.1c-.7 25.23-19 40.7-42.4 47.63-.2-.96-.4-1.92-.5-2.9-.5-3.34-.5-4.2-.6-7.57 0-89.2.2-178.4 0-267.6-.1-4.7-.2-9.4-.5-14-.9-15.2-2.9-30.3-5.9-45.1-3.6-17.5-8.5-34.8-14.8-51.5-6.4-17-14.2-33.6-23.5-49.2-7.5-12.6-15.9-24.6-25.4-35.8-7.9-9.4-16.5-18.1-25.8-26-9.5-8-19.6-15.2-30.3-21.3-11.5-6.6-23.7-11.9-36.3-16-12.6-4.1-25.5-6.8-38.5-8.3-22.1-2.6-44.4-1.9-66.4 1.2-22.9 3.2-45.5 8.9-67.1 17.3-12.5 4.8-24.6 10.4-36.3 16.8-9 4.9-17.6 10.2-26 16-5.9 4-11.6 8.2-17.2 12.6-35.3 27.8-64.6 62.7-87.5 101.2-3.6 5.9-6.9 12-10.2 18.1-4.6 8.6-8.8 17.3-12.7 26.2-5.1 11.3-9.6 22.9-13.6 34.7-5.6 16.1-10.2 32.6-13.7 49.3-4.3 20-7.2 40.4-8.3 60.9-.5 7-.6 14.1-.7 21.1V720z" fill="#cbe6ec"/>
  <path d="M531.83 1.45c.4-.02.78 0 1.17 0 .38 0 .76 0 1.13.02 1.5.02 3.02.05 4.53.1 4.46.1 8.93.34 13.38.67 16.08 1.18 32.06 3.73 47.68 7.72 15.9 4.05 31.4 9.58 46.27 16.5 10.5 4.93 20.7 10.55 30.6 16.8 7.2 4.6 14.2 9.54 20.9 14.78 5.1 4 10.2 8.2 15.1 12.57 4.4 4 8.6 8 12.8 12.2 30.9 31.1 55.1 68.6 72.4 108.8 3.4 7.8 6.5 15.8 9.3 23.8 3.7 10.5 7 21 9.9 31.7 3.8 14.4 6.9 29 9.2 43.6 2 13.2 3.4 26.5 4.1 39.9.3 6.3.5 12.5.5 18.8v214.3c-.1 2-.2 4-.4 6-.5 3.9-1.3 7.8-2.5 11.5-1.3 4.1-3.1 8-5.2 11.7-1.7 2.8-3.5 5.4-5.5 7.9-1.4 1.8-2.9 3.4-4.5 4.9-9.4 9.2-21.4 15.4-33.9 19.2-2.2.7-4.3 1.2-6.4 1.8-2.8.7-5.6 1.3-8.4 1.7-3.5.6-6.9 1-10.4 1.3-4.5.3-8.9.5-13.3.4-6.1-.1-12.1-.7-18-1.6-7.8-1.2-15.4-3.2-22.7-6.1-9.8-3.8-19-9.3-26.6-16.6-5.2-5-9.6-10.9-12.8-17.5-2.2-4.6-3.8-9.5-4.7-14.5-.6-2.9-.9-5.8-1-8.7l-.1-.5-.1-.7c0-49.3.1-98.6.1-148 0-22.3 0-44.7-.1-67.1 0-1 0-2-.08-3.1-.2-9.5-1.06-19-2.54-28.4-1.1-7.1-2.55-14.1-4.35-21.1-1.5-5.5-3.18-11-5-16.4-1.5-4-3-8-4.7-11.9-1.4-3.3-2.8-6.5-4.4-9.7-9.4-19.1-22.3-36.9-39-50.4-2.3-1.9-4.6-3.6-7.04-5.3-3.5-2.4-7.14-4.6-10.9-6.7-5.56-3-11.37-5.5-17.35-7.5-9.3-3.1-19.1-5-29-5.7-11.2-.7-22.5 0-33.5 1.9-4.83.8-9.6 1.8-14.36 3.08-9.1 2.3-18 5.5-26.54 9.4-8.3 3.7-16.26 8.2-23.8 13.3-3.4 2.3-6.7 4.7-9.97 7.26-22.4 17.6-40.2 40.4-54 65.1-6.4 11.6-12 23.6-16.8 36-4.8 12.2-8.8 24.8-12.1 37.5-3 11.5-5.4 23.18-7.18 34.9-2.2 14.6-3.47 29.3-3.6 44.1v234.5l-.07 1.2c-.1 1.74-.2 3.5-.4 5.2-.55 4.7-1.6 9.3-3.14 13.75-1.4 4-3.2 7.8-5.3 11.4-1.7 2.7-3.5 5.3-5.5 7.8-1.4 1.7-2.9 3.4-4.4 4.9-10.9 11-25.2 18.1-40.1 22-2.4.7-4.8 1.2-7.23 1.7-3.1.6-6.2 1.1-9.2 1.4-4.8.6-9.6.83-14.4.8-6-.1-12.05-.67-17.96-1.7-7.8-1.4-15.45-3.7-22.72-6.9-10.1-4.4-19.6-10.6-27.3-18.54-3.6-3.8-6.85-7.92-9.5-12.5-3.4-5.8-5.9-12.1-7.4-18.7-.7-3.5-1.1-6.94-1.3-10.5V435.4c0-3.1 0-6.18.1-9.27.15-6.2.43-12.4.84-18.62 1.25-18.9 3.7-37.8 7.2-56.5 3.9-20.6 9.16-41 15.6-61 4.8-14.7 10.28-29.3 16.4-43.6 4.5-10.5 9.47-21 14.7-31.2 3.4-6.5 7-13 10.68-19.5 6.8-11.8 14.1-23.2 21.9-34.4 20-28.6 43.43-54.9 70.1-77.5 5.93-5.1 12.1-9.9 18.3-14.6 7.6-5.7 15.4-11 23.5-16.1 11.7-7.3 23.7-13.9 36.1-19.7 17.3-8.1 35.2-14.7 53.6-19.8 17.9-4.9 36.1-8.2 54.5-10.1 11-1.1 21.96-1.6 32.96-1.8h2.6zm-2.42 29.17c-10 .1-20.1.6-30.1 1.63-16.8 1.7-33.4 4.78-49.7 9.23-16.4 4.48-32.4 10.37-47.8 17.56-10.7 4.98-21.1 10.58-31.1 16.74-7.4 4.56-14.6 9.42-21.7 14.55-36.7 26.8-67.7 61.03-92.5 99.03-3.6 5.5-7 11.07-10.4 16.72-3.9 6.66-7.7 13.42-11.2 20.27-5 9.6-9.7 19.38-14 29.3-5.8 13.43-11.1 27.14-15.6 41.05-6.2 18.82-11.2 38.03-15 57.48-3.5 18.23-6 36.7-7.2 55.22-.5 8.67-.8 17.36-.9 26.04 0 77.78-2.4 155.6 0 233.34.1 2.6.5 5.2 1.2 7.72.4 1.46.9 2.9 1.5 4.27.6 1.33 1.3 2.62 2 3.87 4.2 7.1 10.8 12.57 18 16.53 1.4.76 2.8 1.47 4.3 2.13 5.6 2.56 11.5 4.37 17.6 5.46 4.6.83 9.2 1.25 13.8 1.26 3.8 0 7.6-.27 11.4-.76 2.8-.36 5.5-.84 8.3-1.47 2.3-.5 4.4-1.1 6.6-1.8l5-1.8c1.2-.5 2.4-1 3.5-1.6 7.4-3.5 14.2-8.4 18.8-15.2.8-1.2 1.5-2.3 2.1-3.6.9-1.7 1.7-3.5 2.2-5.3 1.1-3.3 1.6-6.7 1.7-10.1 0-78.1-.3-156.2 0-234.3.2-18.4 1.9-36.7 5-54.7 2.1-12.4 4.8-24.6 8.2-36.7 2.5-8.9 5.2-17.7 8.3-26.4 2.4-6.6 4.9-13.1 7.7-19.6 2-4.8 4.2-9.4 6.5-14.1 14.3-29.3 33.2-56.6 57.3-78.7 3.86-3.5 7.86-6.9 12-10.2 5.3-4.2 10.8-8.1 16.46-11.7 8.6-5.5 17.8-10.3 27.2-14.4 10.26-4.4 20.9-7.9 31.8-10.4 18.56-4.3 37.8-6.2 56.8-4.3 12.2 1.1 24.25 3.8 35.77 8 7.9 2.8 15.5 6.4 22.7 10.7 4.98 2.9 9.76 6.1 14.3 9.5 3.27 2.5 6.4 5 9.4 7.8 18.8 16.8 33.3 38 43.8 60.9 1.5 3.3 3 6.7 4.3 10.1 1.8 4.5 3.5 9.1 5 13.8 1.9 5.8 3.6 11.7 5 17.6 2 7.9 3.5 15.9 4.6 23.9.9 6.35 1.6 12.76 2 19.2.3 3.55.4 7.13.5 10.7v1.2c.1 4.9.1 9.8.1 14.7v14l.07 40.3v134.36c0 4.46-.16 8.9 0 13.34.1 3.04.6 6.06 1.6 8.95.44 1.38 1 2.7 1.7 4 3.44 6.64 9.4 11.64 15.83 15.23 1.1.6 2.2 1.2 3.3 1.7l4.15 1.8c5.6 2.2 11.4 3.7 17.4 4.6 4.56.7 9.2 1.1 13.8 1.2 3.7 0 7.4-.1 11.1-.5 2.9-.3 5.8-.7 8.6-1.2 2.3-.5 4.6-1 6.9-1.6 1.8-.5 3.5-1.1 5.2-1.7 1.46-.5 2.87-1.1 4.27-1.7 1-.4 1.9-.9 2.85-1.3 6.2-3.1 11.96-7.4 15.9-13.1.6-1 1.2-1.9 1.7-3 .8-1.6 1.46-3.2 1.97-4.8.9-2.8 1.3-5.8 1.4-8.7 2.28-71.3 0-142.7 0-214 0-5.8-.2-11.6-.5-17.4-.6-12.4-1.9-24.7-3.8-36.9-2.2-14.2-5.2-28.3-9-42.2-2.82-10.5-6.2-20.9-9.9-31.2-2.94-8-6.14-15.8-9.6-23.6-11.6-25.8-26.2-50.3-43.94-72.3-8.9-11.1-18.6-21.5-29.1-31.1-10.66-9.8-22.1-18.6-34.2-26.4-8-5.2-16.3-9.8-24.8-13.9-12.26-6-25-10.8-38.1-14.6-13.1-3.7-26.53-6.3-40.1-7.8-8.3-.9-16.62-1.4-25-1.5H530z" fill="#0f3d44" fill-rule="nonzero"/>
</svg>
