<svg width="1642" height="2200" viewBox="0 0 1642 2200" xmlns="http://www.w3.org/2000/svg" fill-rule="evenodd" clip-rule="evenodd" stroke-linecap="round" stroke-linejoin="round" stroke-miterlimit="1.5">
  <path d="M95.7 70.12L1038 21.75l1.73 5.48c2.07 4.8 4.92 9.26 8.42 13.15 3.5 3.88 7.63 7.2 12.2 9.75 2.42 1.36 3.1 1.58 5.64 2.7l510 203.72-289.9 422.93 142.4 830c0 34.78-28.3 63.02-63.1 63.02l-697.4 8.53-246.3 359.23L165 1509.28l-49.2-1404.1c-.74-4.08-.9-8.3-2.2-12.25-2.65-7.96-7.53-15-14.06-20.26l-3.95-2.55z" fill="#98ceda"/>
  <path d="M100.2 69.9l272.6 210.53c.62.5 1.26 1 1.87 1.53 1.23 1.06 2.4 2.17 3.52 3.35 3.3 3.6 6.1 7.6 8.3 11.9 2.8 5.9 4.5 12.2 4.8 18.7.3 5.7-.4 11.4-2.1 16.8-1.5 4.7-3.6 9.1-6.4 13.1-3.7 5.3-8.5 9.9-14 13.3-5.5 3.5-11.7 5.8-18.1 6.7-4.8.8-9.7.8-14.5.1-5.6-.8-11.1-2.7-16-5.4-1.5-.8-2.8-1.6-4.2-2.5-.7-.4-1.3-.9-2-1.4l-289.8-224c.6-34.2 28.6-61.8 63-61.8l12.9-.7zM1038 21.75l20.02-1.03c1.48.02 2.95.02 4.4.02l57.96-2.96c15.3 0 29.35 5.47 40.27 14.56 3.07 1.12 6.22 2.35 9.46 3.7 105.5 44.93 436 176.76 436 176.76l-30 43.72L1066 52.82c-2.56-1.1-3.23-1.33-5.66-2.7-4.56-2.55-8.7-5.86-12.2-9.74-3.5-3.9-6.34-8.35-8.4-13.15l-1.74-5.48z" fill="#b7e3ec"/>
  <path d="M95.7 70.12l3.95 2.55c6.53 5.27 11.4 12.3 14.05 20.26 1.3 3.94 1.47 8.17 2.2 12.26l49.2 1404 256.82 431-43.77 63.8s-192.75-300.6-270.8-424.9c-5.87-11.2-9.76-26-12-37.5-1.6-5.6-2.46-11.4-2.46-17.5L41.7 486.6 28.57 111.3c8.96-23.92 31.92-40.75 58.78-40.75l8.35-.43z" fill="#6fbdcc"/>
  <path d="M1627.24 262.8c0-34.78-28.24-63.02-63.03-63.02L376.4 278.72c-34.8 0-63.03 28.24-63.03 63.03l44.57 1614.7c0 34.8 28.25 63.05 63.03 63.05l1082.76-159.75c34.8 0 63.03-28.24 63.03-63.03l60.48-1533.9z" fill="#46acbf"/>
  <path d="M1559.45 292.3c3.93 1.3 8.1 2.08 11.8 3.95 3.7 1.87 7.18 4.3 10.2 7.13 6.13 5.74 10.47 13.1 12.53 21.24 1 4.03.86 8.26 1.3 12.4l-54.4 1405.8c-.75 4.1-.92 8.33-2.24 12.26-2.67 7.95-7.58 14.96-14.12 20.2-3.24 2.6-6.9 4.75-10.73 6.33-3.9 1.6-8 2.7-12.1 3.1-4.1.5-8.4.3-12.5-.5-8.3-1.5-15.9-5.3-22-11.1-3.1-2.8-5.7-6.1-7.8-9.7-5.7-9.7-4.9-13-6-23.9l54.4-1405.8c.7-4.1.9-8.3 2.2-12.2 2.7-7.9 7.6-14.9 14.1-20.2 3.2-2.6 6.9-4.7 10.7-6.3 3.8-1.6 8-2 12-3l12.4.5z" fill="#1b7686" fill-rule="nonzero"/>
  <path d="M1091.1 5.9c5.62.03 11.24.15 16.86.48 6.95.4 13.88 1.17 20.75 2.32 8.8 1.46 17.5 3.55 25.9 6.2 6.8 2.08 13.4 4.52 20 7.2 1.8.73 3.6 1.5 5.4 2.27 4.6 1.93 9.1 3.85 13.7 5.76 23.4 9.77 46.8 19.4 70.2 29 23.7 9.68 47.4 19.3 71.1 28.92 69.7 28.25 139.4 56.27 209.2 84.23l20.5 8.2 16.2 6.5-.6-.14.8.18.7.2c4.8 1.37 9.3 3.47 13.8 5.67 5 2.4 10 5.1 14.8 7.9l1.1.6c1.5.8 1.5.8 3.1 2l.7.6c.8.7 1.6 1.4 2.3 2.1 2.5 2.3 4.9 4.8 7.1 7.5 7.1 8.6 12.3 18.8 15 29.6 1.6 5.9 2.3 12.1 2.5 18.2v1.4l-60.5 1534v3.6c-.2 2.6-.4 5.2-.8 7.8-.9 5.7-2.4 11.3-4.5 16.6-4.1 10.4-10.6 20-18.7 27.7-7.7 7.3-16.9 13.1-26.9 16.7-5.4 2-11 3.4-16.8 4.1-2.9.4-5.9.6-8.8.6h.1l-1082 159.9-2.2.1c-1.8 0-3.6-.1-5.4-.2-3.6-.3-7.2-.8-10.8-1.6-7.8-1.7-15.4-4.6-22.3-8.6-3.3-1.9-6.4-4-9.3-6.3l-3.2-1.4c-3.1-3.2-3.3-3-5.7-6.8l.4.4c-.7-.7-.7-.7-1.3-1.5-.7-.7-.7-.7-1.3-1.4-.9-1-1.7-2-2.5-3-1.8-2.3-3.5-4.7-5-7.2s-2.9-5.1-4.1-7.7c-.6-1.2-1.1-2.4-1.6-3.6l.2.5c-49.5-77.4-99-154.8-148.4-232.3-18-28.2-36-56.5-53.9-84.8-16.3-25.6-32.5-51.2-48.6-76.9l-3.4-5.4c-1-2-2-4-2.9-6.1-2.3-5.3-4.3-10.7-5.9-16.2-1.7-5.5-3.1-11.1-4.2-16.8-1-4.6-1.8-9.2-2.5-13.8-.2-1.8-.5-3.6-.6-5.4-.1-1.1-.2-2.2-.2-3.4L9.7 133.9c0-1.1 0-2.2.05-3.3 0-1.65.1-3.3.3-4.93.6-6.4 2.1-12.73 4.3-18.77 4.1-11.15 10.8-21.3 19.4-29.5 7.9-7.54 17.4-13.4 27.7-17.03 5.5-1.92 11.2-3.23 16.9-3.9 2.7-.3 5.3-.44 7.9-.5h.6l970.8-49.82 5.5.02c1.7 0 3.3 0 5-.03l16.4-.2 6.6-.03zm-3.2 29.17c-6.48.04-12.98.16-19.47.23-1.74 0-3.47.02-5.2.03-1.63 0-3.26 0-4.9-.02L87.77 85.2l-1.68.02-1.3.03c-1.7.1-3.3.25-4.9.5-3.6.54-7.1 1.48-10.4 2.8-6.4 2.5-12.2 6.37-17 11.26-4.8 4.9-8.5 10.8-10.9 17.2-1.3 3.4-2.1 6.9-2.6 10.5-.2 1.9-.4 3.7-.4 5.6v.3L107.3 1524c0 .34 0 .65.05.97l.2 1.9c.4 3.45.94 6.87 1.57 10.27.8 4.34 1.74 8.65 2.85 12.9.9 3.57 1.92 7.1 3.1 10.6 1.3 3.8 2.8 7.56 4.6 11.16l.1.24c17.07 27.1 34.2 54.15 51.37 81.2 17.95 28.26 35.93 56.5 53.9 84.74 46.3 72.66 92.7 145.23 139.16 217.78l10.06 15.68c.42.8.86 1.64 1.27 2.5.1.2.2.43.26.65l.2.5.7 1.7c1.3 2.7 2.8 5.4 4.6 7.9 1.4 2 3 3.9 4.7 5.6l1.2 1.6.9.5 1.3 1.1c1.8 1.5 3.7 2.9 5.7 4.1 4.5 2.8 9.5 4.8 14.7 6 3.2.7 6.4 1.1 9.6 1.2h.2l1081.6-159.6 2-.2 1.3-.1h1.2c1.6-.1 3.2-.2 4.9-.5 3.3-.5 6.6-1.4 9.8-2.6 6-2.3 11.5-5.8 16.2-10.3 5.2-5 9.3-11.1 11.8-17.9 1.4-3.8 2.4-7.7 2.8-11.6.2-2 .3-4 .3-5.9L1612 262.4c0-5.1-.84-10.2-2.45-15-1.36-4.1-3.3-8.05-5.73-11.7-1.6-2.3-3.3-4.5-5.3-6.52-.9-.96-1.8-1.85-2.8-2.7l-.1-.08c-4.5-2.6-9.2-5.18-13.9-7.5l-5.1-2.4c-.7-.3-1.3-.57-2-.8-.5-.2-1-.4-1.6-.5l-.2-.1-2.35-.73c-82.48-33-164.9-66-247.2-99.4-28.1-11.4-56.2-22.8-84.3-34.34-25.1-10.3-50.17-20.7-75.13-31.3l-3-1.28c-5.1-2-10.2-3.9-15.44-5.5-6.9-2.2-14-3.9-21.2-5.17-5.6-1-11.26-1.6-16.95-2-4.5-.3-9.1-.43-13.6-.5h-6.2z" fill="#0f3d44" fill-rule="nonzero"/>
  <clipPath id="a">
    <path d="M1534.5 385.97c0-29.22-23.7-52.94-52.93-52.94L500.7 403.5c-29.2 0-52.93 23.7-52.93 52.93l37.43 1385.2c0 29.23 23.72 52.95 52.94 52.95l900.97-125.82c29.3 0 53-23.72 53-52.94l42.5-1329.85z"/>
  </clipPath>
  <g clip-path="url(#a)">
    <path d="M1517.6 1810.76l66.36-1464.4-466.04-284.6s-42.46 1406.34-42.46 1377.12l442.13 371.88z" fill="#155965"/>
    <path d="M1290.86 1613.4l240.93 206.88-1109.6 146.64L269 1764.85l1021.86-151.44z" fill="#46acbf"/>
    <path d="M269 1764.85l-147.45-194.48 900.98-125.82c46.66-5.2 58.3-6.93 83.33 10.02l185 158.84L269 1764.9z" fill="#3091a2"/>
    <path d="M121.55 1570.37l900.98-125.82c25.7-2.86 40.77-4.67 53.3-2.9h-.04l45.8-1376.4-888 248.58S92.3 1570.37 121.5 1570.37z" fill="#1b7686"/>
    <path d="M1583.96 346.36l-10.66 235.12-9.37 4.4c-7.53 3.16-15.33 5.75-23.27 7.7-7.93 1.96-16.13 2.66-24.2 4L190.6 710.02 212 510.16l12.83-116.65L1486 286.6l97.96 59.83z" fill="#155965"/>
    <path d="M1065.38 1426.37c2.5.02 5.02.1 7.52.3 4 .32 7.96.9 11.85 1.86 3.68.9 7.28 2.1 10.76 3.57 3.9 1.6 7.5 3.53 11.1 5.64 1.7 1 3.4 2.02 5 3.08l1.3.84c.4.27.8.52 1.2.8l1.4 1.05 426 365.7c1.2 1.5 2.6 2.8 3.5 4.4 1.8 3.4 2.1 7.3 1.1 10.9-.5 1.8-1.4 3.5-2.5 5s-2.6 2.7-4.2 3.6c-1.6.9-3.5 1.2-5.3 1.8L424.2 1981.4c-4.43-.2-5.88.35-9.8-2.2-1.43-.9-2.5-2.3-3.74-3.43L110 1579.2l-2.58-5.46-.14-6.03 2.3-5.5 4.35-4.1 5.68-2 901.2-125.8c6.7-.7 13.3-1.5 19.9-2.1 7.1-.7 14.2-1.3 21.3-1.5h3.6zm-1.23 29.16c-6.34.06-12.68.6-19 1.24-6.94.68-13.87 1.48-20.8 2.25L148.2 1581.37l280.5 370 1068.85-141.28L1097 1466.2c-.8-.54-1.6-1.07-2.42-1.6-4.77-3.02-9.78-5.78-15.24-7.34-4.94-1.4-10.07-1.74-15.2-1.73z" fill="#0f3d44" fill-rule="nonzero"/>
    <path d="M1125.52 49.3l466.04 284.6 3.86 3.44c2.4 4.54 2.43 4.6 3.1 9.68l-66.37 1464.4c-.4 1.75-.5 3.6-1.22 5.24-.73 1.64-1.78 3.16-3.05 4.43-2.58 2.5-6.03 4-9.68 4.2-1.8.1-3.62-.2-5.32-.8-1.7-.6-3.12-1.8-4.68-2.7L1068.5 1452l-.2-.06-1.75-1.6-.47-.4h.02l-2.54-2.3-2.45-5.9-.2-1.9v-.9l.8-4.45c-.1.4-.4.9-.5 1.3-.1.7-.2 1.4-.2 2.1.1-1.6.2-3.2.2-4.8l1.2-33.1c.5-14.2 1-28.3 1.4-42.4l3.9-122.2c3-93.9 5.8-187.9 8.7-281.8 9.1-297.5 18.2-595 27.2-892.5l1.5-5.9 3.7-4.8 5.3-2.9 6.1-.5 5.7 2zm5.15 73.27c-8.4 277.38-16.8 554.76-25.3 832.14-2.88 94-5.77 187.9-8.7 281.8-1.27 40.8-2.54 81.5-3.85 122.3-.77 24.4-1.53 48.7-2.42 73.1l-.02.6 413.98 348.2L1569 354.3l-437.26-267c-.36 11.77-.7 23.53-1.07 35.3z" fill="#0f3d44" fill-rule="nonzero"/>
  </g>
  <path d="M1482.44 318.45c2.3.05 4.58.18 6.87.44 5 .5 10 1.7 14.7 3.3 8.8 3.1 16.8 7.9 23.6 14.3 7.8 7.2 13.8 16.2 17.5 26.2 1.9 5 3.1 10.2 3.7 15.5.3 2.6.5 5.2.5 7.9L1506.7 1716l-.03 1.44-.04 1.72c-.12 2.27-.33 4.54-.7 6.8-.7 4.7-1.9 9.3-3.6 13.72-3.57 9.4-9.27 17.94-16.54 24.9-6.7 6.36-14.7 11.35-23.4 14.53-5 1.8-10.2 3.1-15.5 3.7-2.3.3-4.6.4-6.9.4h.2l-900 125.7-2.1.2c-2.6 0-5.1-.1-7.7-.4-5.3-.6-10.5-1.8-15.5-3.6-10.7-3.9-20.4-10.6-27.9-19.2-5.7-6.6-10.1-14.2-12.9-22.5-1.6-4.5-2.6-9.2-3.1-13.9-.3-2.5-.5-5-.5-7.5L433.2 456.6c0-2.63.1-5.25.4-7.9.6-5.26 1.83-10.46 3.66-15.45 3.52-9.7 9.33-18.6 16.8-25.7 6.9-6.6 15.17-11.7 24.15-14.9 4.8-1.7 9.7-2.8 14.7-3.4 2.3-.3 4.6-.4 6.9-.4h.3l981-70.5h1.3zm-981.17 99.62l-1.56.02h-1.4c-1.4.1-2.9.2-4.3.5-2.7.5-5.5 1.3-8.1 2.4-5.2 2.2-10 5.6-13.8 9.9-3.3 3.8-6 8.3-7.6 13.1-1.3 3.9-2 8-2 12.1l37.4 1385.1v1.7c.1 1.3.2 2.6.4 3.9.4 2.8 1.1 5.5 2.1 8.2 2 5 5 9.6 8.8 13.5 3.8 3.8 8.5 6.8 13.5 8.7 2.7 1 5.4 1.7 8.3 2.1 1.5.2 2.9.3 4.4.3h.1l899.9-125.7 2-.1c.6 0 1.1 0 1.6-.1.5 0 1-.1 1.5-.1 1.3-.1 2.6-.3 3.9-.5 2.6-.5 5.2-1.2 7.7-2.2 5-2.1 9.5-5.2 13.3-9.1 3.5-3.7 6.3-8.1 8.1-12.9 1.2-3 1.9-6.1 2.3-9.2.2-1.6.3-3.2.3-4.7l42-1329.3c0-4.3-.7-8.5-2.1-12.5-1.8-5.2-4.9-10-8.7-14-3.7-3.8-8.3-6.9-13.3-8.9-3-1.1-6.1-1.9-9.2-2.3l-4.4-.3c-327.8-2-653.9 47-980.8 70.5z" fill="#0f3d44" fill-rule="nonzero"/>
  <path d="M1060.5 2062.1l9.7-1459.48c0-48.26 34.8-60.6 34.8-60.6l332.2-210.47s58.47 8.56 81.4 13.3c22.92 4.76 19.96 20.7 19.96 20.7l-263.48 230s-47.48 1216.92-62.16 1498.27l-152.4-31.72z" fill="#46acbf"/>
  <path d="M1060.5 2062.1l152.42 31.72c-1.75 34.64-3.06 55.1-3.7 57.27-4 13.2-22.8 20.7-34.73 24.1l-106.4-22.2c-8-16-8-42.3-8-42.3l.3-48.7z" fill="#3091a2"/>
  <path d="M1121 531.9l179.1 41.8-25.02 21.84-2.75 70.1-202.23-47.2.1-15.82c0-48.26 34.8-60.6 34.8-60.6l16-10.12zm260.04-164.76l56.16-35.6s58.47 8.57 81.4 13.32c22.92 4.75 19.96 20.7 19.96 20.7l-34.66 30.25-122.86-28.6z" fill="#8ed2df"/>
  <path d="M1219.53 636.38c.64-25.63 12.76-57.1 33.1-69.43 20.3-12.32 286.92-199.76 286.92-199.76L1497.5 1745l-308.56 426.74s1.72-14.32.8-37.95c-.9-23.6 23.3-1237.6 29.8-1497.5z" fill="#98ceda"/>
  <path d="M1501.95 1599.54l-4.44 145.5-308.5 426.73s1.8-14.32.8-37.95c-.1-3.6.4-34.85 1.2-86.16l311-448.12z" fill="#46acbf"/>
  <path d="M1546.47 354.35c1.38 1.12 3 2 4.16 3.36 3.18 3.8 2.78 5.4 3.5 10l-42.03 1377.8c-.8 4.3-.8 4.4-2.88 8.3l-312.58 422.7-4.65 4.1-5.9 1.8-6.2-.8-5.3-3.3-3.4-5.1-1-6.1 1.6-5.9-.1.1.3-.8c.1-.4.3-.8.4-1.2.8-2.8 1.4-5.7 1.8-8.6.4-3.7.6-7.4.7-11.1 0-1.8-.1-3.5-.1-5.3 0-.6 0-1.2-.1-1.9 0-8.2.1-16.4.2-24.6.2-16.1.5-32.2.8-48.3.6-36.8 1.2-73.7 1.9-110.5 2.1-116.6 4.4-233.2 6.7-349.8 3.7-188.2 7.5-376.4 11.4-564.5 1.5-71.5 3-143 4.6-214.5 1.3-61.2 2.6-122.4 4.2-183.6l.1-2.8c.5-8.9 2-17.8 4.5-26.4 1.9-6.7 4.4-13.2 7.4-19.4 4.5-9.1 10.2-17.7 17.5-24.7 2.3-2.2 4.8-4.3 7.5-6.2 1.5-1 3.1-2 4.6-3l3.4-2.2c5.4-3.6 10.8-7.2 16.1-10.9l21.5-14.8c18.8-13 37.6-26.1 56.3-39.2 54.2-37.8 108.3-75.8 162.4-113.7l13.2-9.3 11.5-8 4.8-2.2 5.3-.3 5.1 1.7zm-23.28 42.15c-54.2 38-108.3 75.97-162.6 113.8-18.8 13.1-37.6 26.2-56.5 39.22-7.2 4.97-14.4 9.94-21.6 14.88-5.9 4-11.7 7.98-17.6 11.87l-3.5 2.3c-.8.48-1.6.94-2.3 1.44l-1.3.9c-2.9 2.2-5.4 4.8-7.6 7.6-2.2 2.8-4.1 5.8-5.8 8.9-3 5.6-5.4 11.5-7.1 17.5-2 7-3.3 14.2-3.5 21.5-.3 9.2-.5 18.4-.7 27.6-1.5 60.2-2.8 120.4-4.1 180.6-1.4 63.5-2.7 126.9-4 190.3-3.1 146.5-6.1 292.9-9 439.4-2.7 135.1-5.3 270.3-7.9 405.4l-2.4 130c-.6 35.6-1.3 71.2-1.7 106.8v.7l278.7-376.8 41-1344.1-.9.7z" fill="#0f3d44" fill-rule="nonzero"/>
  <path d="M1450.42 319.6c1.77.02 3.54.06 5.3.18 1.16.08 2.32.2 3.47.34 2.8.4 5.6.85 8.4 1.28 6.9 1.08 13.8 2.16 20.7 3.28 4.8.78 9.5 1.58 14.3 2.4 4.2.74 8.5 1.5 12.8 2.3 4 .76 8.1 1.5 12 2.74 3.1 1 6.2 2.32 9.1 4 3.5 2.04 6.7 4.65 9.4 7.78 1.4 1.76 2.7 3.68 3.8 5.72 1.3 2.56 2.3 5.3 2.8 8.14.6 3.27.8 6.7.3 10l-2 5.45-4 4.3L1248.4 589c-1.3 2-2.45 4-3.57 6.1-1.6 2.9-3 5.9-4.4 9-3.7 8.64-6.5 17.8-7.5 27.2-.2 1.77-.3 3.54-.33 5.3-.16 9.38-.26 18.74-.4 28.1-.35 23.5-.7 47.04-1.07 70.56-3.2 208.1-6.58 416.3-10.1 624.4-1.67 96.3-3.35 192.6-5.1 288.9-1.4 76.2-2.84 152.4-4.38 228.6-.5 24.4-1 48.9-1.55 73.3l-1.2 54.4c-.4 15.8-.76 31.65-1.16 47.5-.24 10.8-.52 21.63-.82 32.45-.23 9-.5 18.1-.8 27.1-.3 10.6-.64 21.2-1.12 31.8-.16 3.5-.33 7-.56 10.4l-.3 4c-.1 1.2-.26 2.4-.54 3.6-.16.8-.4 1.5-.64 2.2-.5 1.5-1.03 2.9-1.66 4.3-1.72 3.9-4.03 7.6-6.86 10.8-4.36 4.9-9.9 8.6-16 10.9-2.6 1-5.25 1.7-7.95 2.2-1.9.3-3.8.5-5.7.6l-2.1-.1c-7.4-.9-14.7-1.9-22-2.9-8.2-1.1-16.3-2.3-24.5-3.5-9.2-1.4-18.4-2.9-27.6-4.7-3.2-.6-6.5-1.3-9.7-2.1-1.5-.4-3-.7-4.5-1.2-1.2-.4-2.4-.9-3.6-1.5-1.3-.6-2.5-1.3-3.7-2.1-.9-.6-1.7-1.2-2.5-1.9-5.6-4.6-9.3-11-11.9-17.7-.5-1.1-.9-2.3-1.3-3.4-.5-1.3-.9-2.7-1.3-4.1-.5-1.8-1-3.7-1.4-5.5-.6-2.4-1-4.9-1.4-7.4-.5-3.2-.9-6.4-1.2-9.7-.4-4.3-.7-8.6-.7-12.9-.5-76.5 1-153.1 1.5-229.6l4.4-645.8 2.5-377.4.9-140.9.6-106.4V601c.1-3.9.3-7.77.8-11.6.8-6.8 2.5-13.57 4.9-20 2.1-5.5 4.8-10.76 8.1-15.6 4.4-6.5 9.8-12.2 16-16.95 2.4-1.8 4.8-3.43 7.4-4.9 2.2-1.23 4.4-2.34 6.8-3.24l-1.4.5 310-204.4 2.9-1.5 3.1-.8h.3l1-.1 1.6-.2c3-.4 6-.7 9-1 6.8-.7 13.7-1.3 20.6-1.5l3.6-.1zm-1.52 29.17c-3.96.06-7.9.3-11.85.6-4.43.34-8.84.8-13.24 1.3l-1.1.14-1.4.2-308.2 203.3-3 1.5-1 .5c-2.4 1.2-4.6 2.7-6.7 4.3-3.6 2.9-6.7 6.4-9.2 10.3-1.9 3-3.4 6.1-4.6 9.4-2.5 6.8-3.5 14-3.6 21.1v10l-.1 16.4c-.6 115.5-1.4 230.9-2.2 346.3-1.4 224.2-3 448.4-4.5 672.5l-3.1 464.4v.4c0 .8 0 1.5.1 2.3.2 5.1.6 10.1 1.4 15.1.6 4.1 1.4 8.1 2.6 12 .7 2.3 1.5 4.5 2.6 6.5.4.7.8 1.3 1.2 1.9.3.4.6.8 1 1.1l.1.1.2.1.4.1.8.2 4.2.9c5.3 1.2 10.6 2.1 15.9 3 8.8 1.5 17.6 2.9 26.3 4.2 10.7 1.6 21.5 3 32.2 4.4l1.4.2c2.4-.3 4.7-1.2 6.5-2.8.6-.5 1.2-1.1 1.6-1.7.8-1 1.4-2.2 1.8-3.4l.1-.2.1-.2.2-1.8c.3-4.1.5-8.3.7-12.5.2-4.3.4-8.7.5-13 .5-14.5 1-29 1.4-43.5 1-37.2 1.9-74.4 2.7-111.6 2.4-108.1 4.4-216.2 6.4-324.4 4.1-221.6 7.8-443.3 11.3-664.9 1.3-82.8 2.7-165.5 3.9-248.3l1.1-70.5c.1-9.4.2-18.9.4-28.3l.1-1.7c.2-3.3.5-6.7 1-10 1.7-11.4 5.2-22.4 9.9-32.9 1.6-3.4 3.2-6.7 5-10 1.8-3.4 3.8-6.7 6-10l.3-.5.2-.3 3.5-3.6 291-206.2-1.2-.5c-1.2-.4-2.3-.7-3.5-.9l-4.1-.8c-7.9-1.6-15.8-2.9-23.8-4.2-10.6-1.8-21.3-3.5-32-5.1-.3-.1-.7-.1-1.1-.2-1-.1-2-.2-3.1-.2-.9-.1-1.7-.1-2.6-.1z" fill="#0f3d44" fill-rule="nonzero"/>
  <g fill="#0f3d44">
    <circle cx="1128.88" cy="1160.48" r="25.13"/>
    <circle cx="1128.88" cy="1310.13" r="25.13"/>
    <circle cx="1128.88" cy="1456.45" r="25.13"/>
    <circle cx="1128.88" cy="1595.06" r="25.13"/>
  </g>
  <path d="M1366.08 1499.33c-20.07-1.5-32.1-60.07-26.83-130.73 5.26-70.65 25.82-126.8 45.88-125.3h36.15c20.07 1.48 32.1 60.06 26.83 130.7-5.2 70.67-25.8 126.82-45.8 125.33-20-1.5-16.1 1.5-36.1 0z" fill="#98ceda"/>
  <path d="M1421.28 1243.3c20.07 1.48 32.1 60.06 26.83 130.7-5.2 70.67-25.8 126.82-45.8 125.33-20-1.5-32.1-60.07-26.8-130.73 5.3-70.65 25.9-126.8 45.9-125.3z" fill="#e5f2f4"/>
  <path d="M1597.66 1175.95c17.75 1.1 28.95 19.53 21.6 35.82l-71.43 148.46c-7.55 14.77-22.96 16.32-34.2 10.28-10.43-5.6-17.26-17.7-10.85-31.9l71.4-148.4c4.28-8.3 12.9-13.8 22.27-14.1h1.2" fill="#e5f2f4" fill-rule="nonzero"/>
  <path d="M1406.6 1425.53c-7.18-.54-11.14-26.04-8.84-56.93 2.3-30.88 10-55.52 17.16-55l138.7 14.35c7.17.53 11.13 26.04 8.83 56.93-2.3 30.88-10 55.52-17.16 55-7.2-.55-131.6-13.82-138.7-14.35z" fill="#98ceda"/>
  <path d="M1553.62 1327.95c7.17.53 11.13 26.04 8.83 56.93-2.3 30.88-10 55.52-17.16 55-7.2-.55-11.2-26.05-8.9-56.94 2.3-30.88 10-55.52 17.1-55z" fill="#e5f2f4"/>
  <path d="M1450.85 1197.75c9.67.73 18.4 7.1 22.06 16.08 0 0 27.5 75.82 48 131.3 3.7 9.88-7.7 18.3-13.7 23.1-11.5 9.14-23.8 12.47-29.7-2.12l-51.2-134.5c-5.8-16.3 6.1-33.5 23.5-33.8.4 0 .8 0 1.2.1m51.4 231.1c14.1 1.4 24.2.8 23.3 14.9l-25.4 264.4c-4.1 32.1-51.8 27.4-49.7-4.8l25.4-264.3c1.7-12.8 12-9.7 24.9-10.1l1.6.1" fill="#e5f2f4" fill-rule="nonzero"/>
  <clipPath id="b">
    <path d="M1511.64 1320.13l62.55-130.04c4.2-8.4 12.9-13.9 22.2-14.2h1.2c17.7 1.1 28.9 19.5 21.6 35.8l-59.7 124.1c3.1 9.9 4.4 28.2 2.9 49-2.3 30.5-9.8 54.9-16.9 55h-.3c-1.7-.2-9.3-.9-20.2-2.1.4 1.6.5 3.5.4 5.8l-25.3 264.5c-4.2 32-51.9 27.4-49.8-4.8l25.4-264.4c.3-2.7 1-4.6 2-6.1l-37.4-3.9c-8.9 41.6-23.2 70.1-37.3 70.3h-.1c-.3 0-.6 0-.9-.1-9.4-.7-13.5-.4-17.3-.1l-1.5.1c-3.8.3-7.9.6-17.3-.1-20.1-1.5-32.1-60.1-26.9-130.7 5.3-70.7 25.8-126.8 45.9-125.3h34.6c.5-.1 1-.1 1.5 0 5.2.4 10 4.7 13.9 12.1l-9-23.8c-5.8-16.4 6.1-33.6 23.5-33.9h1.2c9.7.7 18.4 7.1 22.1 16.1 0 0 20.1 55.5 38.7 106.3zm-76.4-64.7c3.34 12.05 12.2 44.4 13.34 61.66l10.54 1-23.87-62.8z"/>
  </clipPath>
  <g clip-path="url(#b)">
    <path d="M1367.86 1308.93l229.97 20.38" fill="#fff" stroke="#d6f9ff" stroke-width="95.83"/>
  </g>
  <path d="M1421.25 1228.7c.63 0 1.27.05 1.9.12 1.55.16 3.1.47 4.6.92 1.44.43 2.85 1 4.2 1.67.88.5 1.73 1 2.56 1.5 6.2 4 10.7 10 14 16.4.6 1.1 1.1 2.1 1.6 3.1.7 1.5 1.4 3.1 2 4.6.8 2.1 1.6 4.2 2.3 6.3.9 2.8 1.7 5.5 2.4 8.3.9 3.6 1.7 7.1 2.4 10.7.9 4.5 1.6 9 2.2 13.5.7 4.9 1.2 9.7 1.6 14.6l.2 2.1c.1.8.2 2.3.2 3.2 0 2-.4 4-1.3 5.9-.6 1.5-1.5 2.9-2.6 4-1.4 1.5-3.1 2.7-4.9 3.5-2.2 1-4.7 1.4-7.1 1.1-1.2-.1-2.4-.3-3.5-.7-1.5-.5-3-1.3-4.2-2.3-2.2-1.7-3.9-4.1-4.8-6.8-.2-.7-.4-1.5-.6-2.3 0-.4-.1-.8-.1-1.2l-.3-3.7c-.6-7.6-1.5-15.1-2.9-22.7-.8-4.8-1.9-9.6-3.2-14.3-1-3.5-2.1-6.9-3.6-10.2-1-2.3-2.2-4.6-3.7-6.6-.8.8-1.5 1.7-2.2 2.6-.8 1.1-1.6 2.2-2.3 3.3-1.9 3-3.6 6.3-5.1 9.5-2.4 5.2-4.3 10.5-6.1 16-2.1 6.5-3.9 13.2-5.5 19.9-2.3 10-4.2 20.2-5.7 30.4-1.5 10.8-2.7 21.6-3.4 32.5-.7 11.2-1 22.5-.9 33.7.2 9.6.6 19.2 1.6 28.7.6 6.3 1.5 12.5 2.6 18.7.9 4.8 2 9.6 3.4 14.3 1 3.2 2 6.3 3.4 9.3 1 2.3 2.1 4.5 3.6 6.4l.1.1c.8-.7 1.6-1.5 2.2-2.4 1-1.2 1.9-2.4 2.7-3.8 2.3-3.5 4.1-7.4 5.8-11.2 2.3-5.3 4.2-10.7 5.9-16.2 2.5-8.1 4.6-16.4 6.4-24.7l.3-1.2c.4-1 .4-1.3.9-2.2.8-1.4 1.7-2.7 2.8-3.9 1.2-1.1 2.5-2 4-2.7 2.2-1 4.6-1.5 7-1.4 2 .1 4 .6 5.8 1.5 1.1.6 2.1 1.2 3 2 1.3 1.1 2.3 2.3 3.1 3.7 1.5 2.5 2.2 5.3 2 8.1 0 1.1-.1 1.4-.3 2.4-.3 1.8-.7 3.5-1.1 5.2-2 8.4-4.2 16.7-6.8 24.8-2 6.1-4.2 12.1-6.8 18-2.1 4.7-4.4 9.3-7.2 13.6-2.2 3.6-4.7 7-7.6 10.1-2.9 3-6.2 5.7-9.9 7.7-2.7 1.4-5.6 2.4-8.6 2.8-2.4.3-4.9.3-7.3 0-1.6-.2-3.3-.6-4.8-1.2-1.2-.4-2.4-.9-3.5-1.5-.9-.5-1.8-1-2.7-1.6-6.1-4-10.5-10.1-13.7-16.6-.6-1.1-1.2-2.3-1.7-3.5-.8-1.9-1.6-3.8-2.3-5.7-.9-2.3-1.6-4.7-2.4-7.1-1.4-4.9-2.6-9.8-3.6-14.8-1.1-5.5-1.9-11.1-2.6-16.6-1.6-13.1-2.4-26.3-2.5-39.6-.2-17.7.7-35.4 2.6-53 1-9 2.2-18.1 3.8-27.1 1.4-8.3 3.1-16.6 5.1-24.8 1.3-5.3 2.8-10.5 4.4-15.8 1.2-4 2.6-8 4.1-11.9 1.3-3.3 2.6-6.5 4-9.7 1.1-2.3 2.2-4.6 3.4-6.9 1-1.8 2-3.6 3.1-5.4.88-1.4 1.8-2.8 2.7-4.2.78-1 1.5-2.1 2.3-3.1 4.2-5.3 9.4-10.1 15.78-12.6 1.13-.5 2.3-.9 3.5-1.2 1.8-.5 3.6-.7 5.4-.8h1.6z" fill="#0f3d44" fill-rule="nonzero"/>
  <path d="M1452.66 1183.27c.96.1 1.9.2 2.85.37 2.1.35 4.2.87 6.2 1.55 7.7 2.5 14.6 7.5 19.5 13.9 1.5 1.8 2.7 3.8 3.8 5.9.6 1.1 1.1 2.3 1.6 3.4l12.5 34.4 12.5 34.1 2.1 5.5 47.7-99.2.7-1.3c.9-1.6 1.9-3.1 3-4.6 2.4-3.2 5.3-6.1 8.6-8.5 4.3-3.2 9.3-5.5 14.5-6.8 2-.5 4-.8 6.1-1 .8-.1 1.6-.1 2.4-.2h3c.9.1 1.7.1 2.6.3 4.5.6 8.9 2 12.9 4.1 3.2 1.6 6.1 3.7 8.7 6.2 3.7 3.5 6.7 7.6 8.9 12.2 2.4 5 3.7 10.5 3.8 16 .2 4.1-.4 8.2-1.5 12.2-.5 1.9-1.2 3.7-2 5.5l-57.5 119.5.4 2.2.4 2.2c1.1 7.1 1.6 14.4 1.8 21.6.1 8-.1 16-.8 24-.6 7.6-1.5 15.2-2.9 22.7-1.1 6-2.4 12-4.2 17.9-.5 1.7-1.1 3.4-1.7 5.1-.4 1.3-1 2.5-1.5 3.8-.4.9-.8 1.8-1.3 2.8-2.3 4.6-5.4 9-9.9 11.8-.9.5-1.8 1-2.7 1.4-1 .4-2.1.8-3.2 1-1.2.2-2.4.4-3.5.4-.7 0-1.4 0-2.2-.1-1.3-.1-2.7-.3-4-.4h-.4l-24.6 255.8c-.2 1.8-.5 3.6-1 5.5-1 3.8-2.5 7.6-4.6 11-1.9 3.1-4.2 5.9-6.9 8.3-2.2 2-4.7 3.7-7.3 5.1-7.3 4-15.9 5.4-24.1 4.5-8.6-1-16.9-4.7-23.2-10.7-3-2.9-5.5-6.3-7.4-10-1.6-3.1-2.8-6.5-3.5-10-.5-2.4-.7-4.9-.8-7.4 0-1.3 0-2.7.1-4l24.6-256.4-8.7-.9-.7 2.9c-1.3 4.8-2.7 9.6-4.2 14.3-1.3 3.8-2.6 7.7-4.1 11.4-1.2 3-2.5 6-3.9 8.9-1 2-2 4.1-3.1 6.1-.9 1.7-1.9 3.3-2.9 5-.7 1.2-1.5 2.3-2.3 3.5-4.2 5.9-9.4 11.3-16.1 14.4-.9.4-1.8.8-2.7 1.1-1.2.4-2.4.8-3.6 1-1.9.4-3.9.5-5.9.5l-4.7-.3c-2.4-.1-4.9-.2-7.3-.1-2.3.1-4.7.3-7 .5l-1.8.1c-1.8.1-3.7.2-5.5.2-3.6 0-7.2-.2-10.8-.5l-1-.1c-1.8-.2-3.6-.6-5.4-1.2-1.1-.4-2.3-.9-3.4-1.5-.9-.5-1.8-1-2.7-1.6-5.8-3.9-10.1-9.7-13.3-15.8-.6-1.1-1.2-2.3-1.7-3.5-.7-1.5-1.4-3.1-2-4.7-.8-2-1.5-4-2.1-6-.9-2.9-1.7-5.7-2.5-8.6-1-3.9-1.9-7.9-2.6-11.8-2.3-12.2-3.5-24.57-4.2-36.9-.8-16-.7-32 .3-48 1-16.4 2.8-32.8 5.6-49.1 2.3-13.7 5.4-27.3 9.5-40.5 1.3-4.4 2.8-8.8 4.4-13.1 1.2-3.3 2.6-6.5 4-9.7 1.1-2.3 2.2-4.6 3.4-6.8 1-1.8 2-3.6 3.1-5.4.7-1.1 1.4-2.2 2.2-3.3.7-1 1.5-2.1 2.3-3.1 3.98-5.05 8.8-9.6 14.8-12.25.78-.37 1.6-.7 2.4-.97 1.2-.4 2.4-.7 3.6-1 2-.3 4-.5 6.1-.4h-.05 24.9l-.1-1.2c-.16-1.4-.2-2.8-.26-4.2 0-3.1.4-6.3 1.1-9.3 1.15-4.8 3.2-9.5 6.04-13.6 2.64-3.8 5.9-7.2 9.64-9.8 2.9-2.1 6.04-3.8 9.4-5 3.04-1.2 6.23-1.9 9.5-2.3.8-.1 1.63-.2 2.5-.2l1.5-.1c.66 0 1.3 0 1.96.04.3 0 .6.1 1 .1zm-58.83 301.05c2.83.05 5.65.2 8.48.4.3-.16.5-.34.7-.5.9-.76 1.7-1.6 2.4-2.48.9-1 1.6-2.07 2.3-3.15 2.2-3.3 4-6.9 5.6-10.5 2.5-5.5 4.5-11.1 6.3-16.7 2.7-8.4 4.9-17 6.7-25.6l.5-1.7c.3-.6.5-1.2.7-1.7.5-1.1 1.2-2.1 2-3 2.3-2.8 5.6-4.6 9.1-5.1 1.6-.2 2-.2 3.6-.1l18.1 1.9 19.3 2 1.8.3c.6.1 1.2.3 1.7.5 1.7.6 3.2 1.5 4.6 2.6 3.2 2.7 5.1 6.8 5.1 10.9 0 1.2-.1 2.4-.4 3.5-.3 1.2-.6 2.2-1.2 3.3l-.4.8v.2c-12.2 87.5-20.3 175.6-25.3 263.8v1.1c.1 2 .5 4.1 1.8 5.8 1.7 2.2 4.5 3.4 7.2 3.8.6.1 1.1.1 1.7.1.7 0 1.4 0 2.1-.2 1.7-.3 3.4-.9 4.7-2 .4-.3.7-.6 1-.9 1.5-1.7 2.2-3.8 2.5-6 11.8-87.6 20.4-175.6 25.3-263.8.1-.3.1-.6 0-.9v-.3l-.3-1.7c0-.6-.1-1.2-.1-1.7 0-1.2.2-2.4.4-3.5.3-1.2.7-2.3 1.2-3.3 1.9-3.7 5.3-6.4 9.3-7.5 1.2-.3 2.3-.4 3.5-.5.6 0 1.2 0 1.8.1l7.5.7 5.9.6.4-1c1.3-3.4 2.2-6.9 3.1-10.4.8-3.5 1.5-7.1 2.1-10.6.8-4.9 1.5-9.9 1.9-14.9.4-4.6.7-9.2.9-13.8.2-6.5.1-13-.4-19.5-.2-2.5-.5-5-.8-7.4-.3-2.1-.7-4.2-1.3-6.2l-.1-.3-.1-.4-.4-1.5c-.2-1.4-.3-1.7-.2-3.1.1-1.6.4-3.1.9-4.6l.6-1.4c19.9-41.4 41.1-82.1 59.7-124 .6-1.5 1-3.2.9-4.8-.1-3.3-1.8-6.4-4.4-8.3-.8-.7-1.8-1.2-2.8-1.5-.6-.2-1.2-.3-1.8-.4-.4-.1-.8-.1-1.2-.1h-.5c-.4.1-.8.1-1.2.2-1.6.4-3.2 1.1-4.5 2.1-1.3 1-2.4 2.3-3.2 3.7v.1l-62.5 129.9-.83 1.5c-.34.4-.65.9-1 1.4-1.1 1.3-2.4 2.4-3.9 3.3-1.42.8-3.1 1.5-4.72 1.8-2.8.5-5.7.2-8.4-.9-1.6-.7-3-1.6-4.3-2.8-1.3-1.2-2.3-2.6-3.1-4.1l-.6-1.6-13.9-38.1c-8.3-22.7-16.5-45.3-24.7-68-.1-.3-.3-.6-.4-.9-1.4-2.5-3.8-4.5-6.6-5.4-.7-.3-1.3-.4-2-.5l-.3-.1c-1-.1-2 .1-2.9.4-1 .3-2 .7-2.9 1.3-2.6 1.7-4.5 4.6-4.8 7.8-.2 1.6 0 3.2.5 4.7 2.8 8 6 15.8 9 23.7l23.9 62.7.5 1.7c.1.5.3 1.1.4 1.7.17 1.1.17 2.3 0 3.5-.1 1.1-.4 2.3-.8 3.4-1.4 3.8-4.5 6.9-8.3 8.4-1.6.7-3.33 1-5.1 1-.6 0-1.2-.1-1.73-.1l-10.6-1-1.65-.3c-1.1-.3-2.2-.7-3.2-1.1-3.6-1.8-6.4-5-7.6-8.8-.2-.5-.3-1.1-.4-1.6-.2-1.1-.2-1.5-.3-2.4l-.1-1.4-.2-2.3c-1-7.3-2.5-14.6-4.1-21.7-2.3-10.1-4.9-20.2-7.7-30.2l-.2-.8c-.64-1.1-1.3-2.1-2.1-3l-.3-.2H1386c-.6.4-1.1.9-1.63 1.4-.86.9-1.6 1.9-2.35 2.8-2 2.8-3.7 5.8-5.25 8.9-2.52 5.2-4.63 10.5-6.5 15.9-2.32 6.8-4.3 13.6-6 20.6-2.52 10.3-4.5 20.8-6.1 31.4-1.64 11.3-2.84 22.6-3.6 34-.8 11.7-1.13 23.4-.9 35.1.15 9.9.7 19.8 1.8 29.7.7 6.1 1.57 12.2 2.76 18.2 1 5.2 2.3 10.4 4 15.4 1.03 3 2.2 6 3.7 8.8.44.9 1 1.8 1.53 2.64.5.7 1 1.4 1.6 2l.1.12 3.4.2c2.47.1 4.9.15 7.37 0 2.1-.1 4.2-.4 6.3-.5l1.8-.2c1.42 0 2.85-.1 4.3-.1h2.5zm96.06-43.2l.2-.4v-.03l-.3.4z" fill="#0f3d44" fill-rule="nonzero"/>
  <path d="M1413.86 619.64c27.4 2.28 42.98 84 34.8 182.35-8.2 98.3-37.07 176.3-64.45 174.1-27.3-2.3-42.9-84-34.7-182.4s37.1-176.4 64.5-174.1z" fill="#0f3d44"/>
  <path d="M1421.77 663.08c18.16 1.5 91.32 143.47 91.32 143.47s-96 131.75-114.1 130.25c-18.2-1.52-27.8-64.07-21.6-139.6 6.3-75.54 26.1-135.63 44.3-134.12z" fill="#0f3d44"/>
  <path d="M1530.26 740.58c10.88.9 17.02 34.05 13.7 73.96-3.32 39.9-14.85 71.58-25.73 70.67l-82.6 4c-10.9-.9-16.54-39.9-12.62-87 4-47.1 16-84.6 26.9-83.7 10.9.9 69.6 21.3 80.5 22.2z" fill="#98ceda"/>
  <path d="M1530.26 740.58c10.88.9 17.02 34.05 13.7 73.96-3.32 39.9-14.85 71.58-25.73 70.67-10.88-.9-17.02-34-13.7-73.9 3.32-39.9 14.85-71.6 25.73-70.7z" fill="#e5f2f4"/>
  <clipPath id="c">
    <path d="M1530.26 740.58c10.88.9 17.02 34.05 13.7 73.96-3.32 39.9-14.85 71.58-25.73 70.67l-82.6 4c-10.9-.9-16.54-39.9-12.62-87 4-47.1 16-84.6 26.9-83.7 10.9.9 69.6 21.3 80.5 22.2z"/>
  </clipPath>
  <g clip-path="url(#c)">
    <path d="M1366.54 746.8l229.97 20.38" fill="#fff" stroke="#d6f9ff" stroke-width="95.83"/>
  </g>
  <path d="M1413.12 605c.9.03 1.8.08 2.7.18 1.5.16 3 .45 4.44.84 1.43.4 2.82.9 4.18 1.48 1.1.5 2.18 1.04 3.22 1.64 6.66 3.88 11.73 9.96 15.64 16.5.62 1.03 1.2 2.07 1.77 3.12.7 1.3 1.35 2.6 1.97 3.93.87 1.8 1.68 3.6 2.44 5.5 1 2.4 1.9 4.9 2.75 7.5 1.07 3.2 2.04 6.4 2.92 9.7 1.18 4.4 2.2 8.8 3.12 13.3 1.17 5.7 2.15 11.5 2.97 17.3 1 1.5 2 3 2.98 4.6 4.12 6.4 8.13 12.9 12.06 19.4 2.3.6 4.57 1.3 6.84 2 7.8 2.4 15.6 4.8 23.4 7.1l8.38 2.5c3.14.9 6.28 1.8 9.45 2.6l3.64.9c1 .2 2.1.5 3.1.6.2 0 .3.1.5.1h.7l.9.1c.8.2 1 .2 1.8.4 1.1.3 2.2.7 3.3 1.3 1 .4 1.9 1 2.9 1.6.6.5 1.2.9 1.9 1.4 4.6 3.9 7.6 9.3 9.7 14.9.3 1 .7 2 1 3.1 1.2 3.9 2.1 8 2.9 12.1.8 4.8 1.4 9.7 1.8 14.6.5 6 .7 12.1.7 18.2 0 6.6-.3 13.3-.8 19.9-.6 7.5-1.5 15-2.7 22.5-1.6 9.6-3.6 19.1-6.5 28.3l-2.4 6.9-2.1 5.1c-.6 1.4-1.3 2.8-2 4.2-.5.9-1 1.9-1.6 2.8-3.1 5.5-7.3 10.7-12.9 13.7-.7.4-1.4.7-2.2 1-1.1.4-2.1.7-3.2 1-1.2.3-2.4.4-3.5.5h-2 .2l-61.4 2.9-4.2 5-10.8 12.3-.4.4-.9 2.6-1.3 3.7c-1.8 5-3.6 9.9-5.7 14.8-1.7 4-3.5 7.9-5.4 11.7-1.4 2.9-2.9 5.7-4.6 8.4-1.2 1.9-2.4 3.9-3.6 5.7-1 1.4-2 2.8-3 4.1l-2.2 2.8c-5.3 6.3-11.7 11.9-19.6 14.6-1.1.4-2.2.7-3.4 1-1.7.3-3.4.6-5.1.7-2.3.1-4.7-.1-6.9-.6-3.1-.6-6.2-1.8-8.9-3.3-4.1-2.3-7.6-5.4-10.5-8.9-4.3-5-7.5-10.8-10.2-16.8-2-4.4-3.6-8.9-5.1-13.5-1.7-5.3-3.1-10.7-4.3-16.1-1.8-7.7-3.1-15.5-4.2-23.3-1.2-8.7-2.1-17.5-2.7-26.2-1.6-21.3-1.7-42.7-.7-64.1.5-11.7 1.3-23.3 2.4-34.9 1.3-13.5 3-27 5.2-40.4 1.9-11.7 4.2-23.4 6.8-34.9 2.3-9.9 4.9-19.6 7.9-29.3 1.8-6 3.9-12 6.1-17.8 1.7-4.4 3.5-8.8 5.5-13.1 1.4-3.1 2.9-6.1 4.5-9.1 1.2-2.2 2.4-4.4 3.7-6.6 1-1.7 2.1-3.3 3.2-4.9 1-1.4 2-2.8 3-4.1.8-1 1.6-1.9 2.4-2.9 4.9-5.7 11-10.8 18.2-13.3 1.2-.5 2.4-.8 3.6-1.1 1.9-.4 3.8-.7 5.7-.7h1.3zm-.5 29.2c-.54.12-1.07.43-1.55.74-.93.6-1.8 1.32-2.6 2.08-1.3 1.24-2.5 2.6-3.6 4.02-1.36 1.75-2.62 3.57-3.8 5.44-1.83 2.9-3.5 5.94-5.03 9.02-1.73 3.44-3.3 6.96-4.8 10.52-3.53 8.5-6.5 17.25-9.1 26.08-4.23 14.23-7.55 28.72-10.28 43.3-3.26 17.48-5.65 35.12-7.3 52.82-1.7 18.1-2.66 36.3-2.73 54.5-.06 15.46.5 30.94 1.94 46.33 1 10.74 2.44 21.46 4.6 32.04.9 4.4 1.93 8.8 3.15 13.1 1.03 3.7 2.2 7.3 3.57 10.9.9 2.5 2 4.9 3.2 7.2.9 1.8 1.9 3.5 3.1 5.1.7 1 1.5 2 2.4 2.8l.9.7.6.3c.1 0 .3-.1.5-.2.7-.4 1.5-.8 2.1-1.4.9-.7 1.7-1.5 2.4-2.3 2.5-2.7 4.7-5.7 6.6-8.8 3.1-5 5.8-10.4 8.1-15.8 3.5-8 6.4-16.3 9.1-24.6l.4-1.2c.4-1 .5-1.3 1.1-2.2.6-1 .8-1.2 1.6-2 1.2-1.4 2.4-2.7 3.7-4.1 5.8-6.6 11.5-13.2 17.1-19.9l.9-1c.9-.8 1.1-1.1 2-1.7 1.5-1 3.1-1.8 4.9-2.2 1.1-.2 1.4-.2 2.6-.3l66.2-3.2c.9-1.4 1.7-2.9 2.4-4.4 1-2.2 1.9-4.5 2.7-6.7 1.2-3.3 2.2-6.6 3-9.9.9-3.5 1.7-7 2.4-10.5 1.9-9.5 3.1-19 3.8-28.6.8-10 .9-20 .3-29.9-.4-5.3-.9-10.6-1.9-15.8-.4-1.9-.8-3.8-1.4-5.7-.5-1.6-1-3.3-1.7-4.8l-1.7-.4-2-.5c-6.8-1.7-13.5-3.7-20.2-5.7-8.8-2.6-17.6-5.4-26.4-8-2.5-.7-5-1.5-7.5-2.2l-4.6-1.4-1.3-.4c-1.1-.5-1.4-.6-2.4-1.3-1.5-1-2.9-2.3-4-3.7-.2-.4-.5-.8-.7-1.1l-3.7-6.2c-5-8.2-10-16.4-15.4-24.4l-.6-1.2-.6-1.2c-.3-.8-.6-1.6-.8-2.5-.2-1-.4-2.3-.5-3.2l-.3-1.9-.6-3.7c-1.2-7.7-2.7-15.3-4.7-22.8-1.4-5.4-3.1-10.8-5.4-16-1.4-3.2-2.9-6.3-4.9-9-.6-.9-1.3-1.7-2-2.4-.5-.5-1.1-1-1.7-1.4l-.3-.1h-.1zm106.52 236.46h-.22.22z" fill="#0f3d44" fill-rule="nonzero"/>
  <path d="M1530.54 726c.83.04 1.04.04 1.86.15 1.22.15 2.42.43 3.6.8 1.37.45 2.7 1.04 3.97 1.76.93.6 1.82 1.2 2.67 1.8 4.78 3.8 7.9 9.2 10.06 14.8.3.8.6 1.6.88 2.4.42 1.3.8 2.5 1.17 3.8.5 1.8.93 3.6 1.32 5.4.52 2.4.95 4.8 1.32 7.2 1.3 8.4 1.8 16.9 2 25.5.1 10.1-.3 20.3-1.3 30.3-.9 9.5-2.3 19-4.3 28.3-1.6 7.5-3.6 15-6.2 22.2-.8 2-1.5 4-2.4 5.9-.7 1.5-1.3 2.9-2 4.3-.5 1-1 2-1.6 2.9-3.2 5.6-7.3 10.9-13 14-1 .5-1.9 1-3 1.4-1.1.4-2.2.7-3.4 1-1.5.3-3.1.4-4.6.4-1.9 0-3.7-.4-5.5-.9-1.4-.4-2.7-1-4-1.8-1-.5-1.9-1.1-2.7-1.8-5-3.8-8.1-9.5-10.3-15.3-.4-1-.8-2-1.1-3-.4-1.2-.8-2.5-1.1-3.8-.5-1.8-.9-3.6-1.3-5.4-.5-2.4-.9-4.8-1.3-7.2-1.2-7.9-1.7-15.9-1.8-23.9-.2-10.1.3-20.3 1.2-30.3.9-9.2 2.2-18.4 4.1-27.4 1.6-7.5 3.5-15.1 6.1-22.3.7-2 1.5-3.9 2.3-5.9.6-1.4 1.3-2.9 2-4.3l1.5-2.9c3.1-5.5 7.1-10.9 12.6-14.2.7-.4 1.3-.7 2.1-1 1-.5 2-.9 3.1-1.2 1.1-.3 2.3-.5 3.5-.7.8-.1 1 0 1.8-.1h.9zm-2.46 40.13c-2.3 6.5-4 13.22-5.36 20-1.68 8.4-2.84 16.9-3.58 25.45-.75 8.63-1.07 17.3-.86 25.94.17 7.23.7 14.46 1.92 21.6l.1.54.04.23.82-2.4c2.32-7.1 4-14.4 5.34-21.7 1.5-8.4 2.52-16.8 3.13-25.2.58-8 .8-16 .54-24-.22-6.9-.78-13.8-1.97-20.6l-.04-.3-.08.2z" fill="#0f3d44" fill-rule="nonzero"/>
</svg>
